<?xml version="1.0" encoding="UTF-8"?>
<svg xmlns="http://www.w3.org/2000/svg" xmlns:xlink="http://www.w3.org/1999/xlink" width="525pt" height="324pt" viewBox="0 0 525 324">
<defs>
<g>
<g id="glyph-0-0">
<path d="M 0.4375 -2.9375 L 0.4375 -2.21875 L 3.25 -2.21875 L 3.25 -2.9375 Z M 0.4375 -2.9375 "/>
</g>
<g id="glyph-0-1">
<path d="M 1.75 -3.765625 C 2.421875 -3.765625 2.6875 -3.734375 2.9375 -3.640625 C 3.65625 -3.375 4.09375 -2.734375 4.09375 -1.953125 C 4.09375 -0.984375 3.453125 -0.25 2.609375 -0.25 C 2.296875 -0.25 2.0625 -0.328125 1.640625 -0.609375 C 1.3125 -0.8125 1.125 -0.890625 0.921875 -0.890625 C 0.65625 -0.890625 0.484375 -0.734375 0.484375 -0.484375 C 0.484375 -0.09375 0.984375 0.15625 1.78125 0.15625 C 2.640625 0.15625 3.546875 -0.140625 4.09375 -0.609375 C 4.625 -1.078125 4.921875 -1.734375 4.921875 -2.5 C 4.921875 -3.09375 4.734375 -3.609375 4.421875 -3.96875 C 4.171875 -4.21875 3.953125 -4.359375 3.46875 -4.578125 C 4.25 -5.109375 4.53125 -5.53125 4.53125 -6.140625 C 4.53125 -7.078125 3.8125 -7.703125 2.75 -7.703125 C 2.171875 -7.703125 1.671875 -7.515625 1.265625 -7.15625 C 0.921875 -6.828125 0.75 -6.546875 0.515625 -5.859375 L 0.6875 -5.8125 C 1.140625 -6.65625 1.65625 -7.03125 2.375 -7.03125 C 3.125 -7.03125 3.625 -6.53125 3.625 -5.8125 C 3.625 -5.390625 3.453125 -5 3.171875 -4.703125 C 2.828125 -4.359375 2.515625 -4.1875 1.734375 -3.90625 Z M 1.75 -3.765625 "/>
</g>
<g id="glyph-0-2">
<path d="M 5.421875 -1.5625 L 5.265625 -1.625 C 4.84375 -0.953125 4.71875 -0.875 4.1875 -0.859375 L 1.453125 -0.859375 L 3.375 -2.875 C 4.390625 -3.9375 4.84375 -4.796875 4.84375 -5.6875 C 4.84375 -6.828125 3.90625 -7.703125 2.71875 -7.703125 C 2.09375 -7.703125 1.5 -7.453125 1.078125 -7 C 0.71875 -6.609375 0.546875 -6.25 0.359375 -5.4375 L 0.59375 -5.390625 C 1.046875 -6.5 1.453125 -6.859375 2.25 -6.859375 C 3.21875 -6.859375 3.859375 -6.21875 3.859375 -5.265625 C 3.859375 -4.359375 3.328125 -3.3125 2.375 -2.296875 L 0.34375 -0.140625 L 0.34375 0 L 4.796875 0 Z M 5.421875 -1.5625 "/>
</g>
<g id="glyph-0-3">
<path d="M 1.34375 0 L 4.5 0 L 4.5 -0.171875 C 3.609375 -0.171875 3.421875 -0.296875 3.40625 -0.84375 L 3.40625 -7.6875 L 3.3125 -7.703125 L 1.265625 -6.671875 L 1.265625 -6.515625 C 1.703125 -6.6875 1.984375 -6.765625 2.09375 -6.765625 C 2.328125 -6.765625 2.421875 -6.59375 2.421875 -6.234375 L 2.421875 -1.0625 C 2.40625 -0.34375 2.21875 -0.1875 1.34375 -0.171875 Z M 1.34375 0 "/>
</g>
<g id="glyph-0-4">
<path d="M 2.890625 -7.703125 C 2.265625 -7.703125 1.796875 -7.53125 1.375 -7.125 C 0.703125 -6.484375 0.28125 -5.171875 0.28125 -3.828125 C 0.28125 -2.578125 0.65625 -1.25 1.1875 -0.609375 C 1.609375 -0.109375 2.1875 0.15625 2.84375 0.15625 C 3.4375 0.15625 3.921875 -0.03125 4.328125 -0.4375 C 5 -1.0625 5.421875 -2.390625 5.421875 -3.765625 C 5.421875 -6.109375 4.390625 -7.703125 2.890625 -7.703125 Z M 2.859375 -7.40625 C 3.828125 -7.40625 4.328125 -6.125 4.328125 -3.734375 C 4.328125 -1.359375 3.828125 -0.140625 2.84375 -0.140625 C 1.875 -0.140625 1.375 -1.359375 1.375 -3.734375 C 1.375 -6.15625 1.875 -7.40625 2.859375 -7.40625 Z M 2.859375 -7.40625 "/>
</g>
<g id="glyph-1-0">
<path d="M -7.703125 -2.890625 C -7.703125 -2.265625 -7.53125 -1.796875 -7.125 -1.375 C -6.484375 -0.703125 -5.171875 -0.28125 -3.828125 -0.28125 C -2.578125 -0.28125 -1.25 -0.65625 -0.609375 -1.1875 C -0.109375 -1.609375 0.15625 -2.1875 0.15625 -2.84375 C 0.15625 -3.4375 -0.03125 -3.921875 -0.4375 -4.328125 C -1.0625 -5 -2.390625 -5.421875 -3.765625 -5.421875 C -6.109375 -5.421875 -7.703125 -4.390625 -7.703125 -2.890625 Z M -7.40625 -2.859375 C -7.40625 -3.828125 -6.125 -4.328125 -3.734375 -4.328125 C -1.359375 -4.328125 -0.140625 -3.828125 -0.140625 -2.84375 C -0.140625 -1.875 -1.359375 -1.375 -3.734375 -1.375 C -6.15625 -1.375 -7.40625 -1.875 -7.40625 -2.859375 Z M -7.40625 -2.859375 "/>
</g>
<g id="glyph-1-1">
<path d="M -1.140625 -1.421875 C -1.140625 -1.078125 -0.859375 -0.796875 -0.484375 -0.796875 C -0.15625 -0.796875 0.125 -1.078125 0.125 -1.421875 C 0.125 -1.765625 -0.140625 -2.0625 -0.484375 -2.0625 C -0.84375 -2.0625 -1.140625 -1.765625 -1.140625 -1.421875 Z M -1.140625 -1.421875 "/>
</g>
<g id="glyph-1-2">
<path d="M 0 -1.34375 L 0 -4.5 L -0.171875 -4.5 C -0.171875 -3.609375 -0.296875 -3.421875 -0.84375 -3.40625 L -7.6875 -3.40625 L -7.703125 -3.3125 L -6.671875 -1.265625 L -6.515625 -1.265625 C -6.6875 -1.703125 -6.765625 -1.984375 -6.765625 -2.09375 C -6.765625 -2.328125 -6.59375 -2.421875 -6.234375 -2.421875 L -1.0625 -2.421875 C -0.34375 -2.40625 -0.1875 -2.21875 -0.171875 -1.34375 Z M 0 -1.34375 "/>
</g>
<g id="glyph-1-3">
<path d="M -1.5625 -5.421875 L -1.625 -5.265625 C -0.953125 -4.84375 -0.875 -4.71875 -0.859375 -4.1875 L -0.859375 -1.453125 L -2.875 -3.375 C -3.9375 -4.390625 -4.796875 -4.84375 -5.6875 -4.84375 C -6.828125 -4.84375 -7.703125 -3.90625 -7.703125 -2.71875 C -7.703125 -2.09375 -7.453125 -1.5 -7 -1.078125 C -6.609375 -0.71875 -6.25 -0.546875 -5.4375 -0.359375 L -5.390625 -0.59375 C -6.5 -1.046875 -6.859375 -1.453125 -6.859375 -2.25 C -6.859375 -3.21875 -6.21875 -3.859375 -5.265625 -3.859375 C -4.359375 -3.859375 -3.3125 -3.328125 -2.296875 -2.375 L -0.140625 -0.34375 L 0 -0.34375 L 0 -4.796875 Z M -1.5625 -5.421875 "/>
</g>
<g id="glyph-1-4">
<path d="M -3.765625 -1.75 C -3.765625 -2.421875 -3.734375 -2.6875 -3.640625 -2.9375 C -3.375 -3.65625 -2.734375 -4.09375 -1.953125 -4.09375 C -0.984375 -4.09375 -0.25 -3.453125 -0.25 -2.609375 C -0.25 -2.296875 -0.328125 -2.0625 -0.609375 -1.640625 C -0.8125 -1.3125 -0.890625 -1.125 -0.890625 -0.921875 C -0.890625 -0.65625 -0.734375 -0.484375 -0.484375 -0.484375 C -0.09375 -0.484375 0.15625 -0.984375 0.15625 -1.78125 C 0.15625 -2.640625 -0.140625 -3.546875 -0.609375 -4.09375 C -1.078125 -4.625 -1.734375 -4.921875 -2.5 -4.921875 C -3.09375 -4.921875 -3.609375 -4.734375 -3.96875 -4.421875 C -4.21875 -4.171875 -4.359375 -3.953125 -4.578125 -3.46875 C -5.109375 -4.25 -5.53125 -4.53125 -6.140625 -4.53125 C -7.078125 -4.53125 -7.703125 -3.8125 -7.703125 -2.75 C -7.703125 -2.171875 -7.515625 -1.671875 -7.15625 -1.265625 C -6.828125 -0.921875 -6.546875 -0.75 -5.859375 -0.515625 L -5.8125 -0.6875 C -6.65625 -1.140625 -7.03125 -1.65625 -7.03125 -2.375 C -7.03125 -3.125 -6.53125 -3.625 -5.8125 -3.625 C -5.390625 -3.625 -5 -3.453125 -4.703125 -3.171875 C -4.359375 -2.828125 -4.1875 -2.515625 -3.90625 -1.734375 Z M -3.765625 -1.75 "/>
</g>
<g id="glyph-2-0">
<path d="M 10.734375 -16.21875 L 10.21875 -16.21875 C 10.125 -15.703125 9.859375 -15.40625 9.453125 -15.40625 C 9.21875 -15.40625 8.8125 -15.5 8.40625 -15.703125 C 7.515625 -16.03125 6.625 -16.21875 5.828125 -16.21875 C 4.828125 -16.21875 3.765625 -15.8125 2.96875 -15.125 C 2.140625 -14.375 1.703125 -13.375 1.703125 -12.125 C 1.703125 -10.203125 2.765625 -8.859375 5.453125 -7.4375 C 7.171875 -6.5 8.421875 -5.546875 9.03125 -4.625 C 9.234375 -4.3125 9.359375 -3.8125 9.359375 -3.21875 C 9.359375 -1.625 8.15625 -0.53125 6.40625 -0.53125 C 4.25 -0.53125 2.765625 -1.84375 1.5625 -4.78125 L 1.015625 -4.78125 L 1.734375 0.3125 L 2.25 0.3125 C 2.28125 -0.140625 2.5625 -0.484375 2.921875 -0.484375 C 3.1875 -0.484375 3.59375 -0.390625 4.0625 -0.21875 C 4.96875 0.140625 5.953125 0.34375 6.890625 0.34375 C 9.671875 0.34375 11.78125 -1.5625 11.78125 -4.0625 C 11.78125 -6.03125 10.46875 -7.5625 7.296875 -9.28125 C 4.78125 -10.65625 3.765625 -11.71875 3.765625 -13.03125 C 3.765625 -14.359375 4.78125 -15.234375 6.265625 -15.234375 C 7.34375 -15.234375 8.359375 -14.78125 9.1875 -13.921875 C 9.9375 -13.15625 10.265625 -12.53125 10.65625 -11.109375 L 11.25 -11.109375 Z M 10.734375 -16.21875 "/>
</g>
<g id="glyph-2-1">
<path d="M 0.5 0 L 6.171875 0 L 6.171875 -0.359375 C 4.65625 -0.4375 4.390625 -0.671875 4.375 -2.015625 L 4.375 -16.34375 L 4.265625 -16.390625 C 3.046875 -16.015625 2.15625 -15.75 0.453125 -15.34375 L 0.453125 -14.953125 L 0.59375 -14.953125 C 0.859375 -14.96875 1.15625 -15 1.34375 -15 C 2.109375 -15 2.359375 -14.65625 2.359375 -13.53125 L 2.359375 -2.09375 C 2.328125 -0.796875 1.984375 -0.453125 0.5 -0.359375 Z M 0.5 0 "/>
</g>
<g id="glyph-2-2">
<path d="M 6 -11.046875 C 2.859375 -11.046875 0.703125 -8.734375 0.703125 -5.421875 C 0.703125 -2.15625 2.921875 0.234375 5.953125 0.234375 C 8.96875 0.234375 11.28125 -2.28125 11.28125 -5.609375 C 11.28125 -8.78125 9.078125 -11.046875 6 -11.046875 Z M 5.6875 -10.375 C 7.703125 -10.375 9.125 -8.0625 9.125 -4.78125 C 9.125 -2.046875 8.046875 -0.4375 6.234375 -0.4375 C 5.296875 -0.4375 4.421875 -1.015625 3.90625 -1.96875 C 3.234375 -3.21875 2.859375 -4.890625 2.859375 -6.59375 C 2.859375 -8.875 3.953125 -10.375 5.6875 -10.375 Z M 5.6875 -10.375 "/>
</g>
<g id="glyph-2-3">
<path d="M 13.703125 -10.796875 L 13.703125 -10.4375 C 14.515625 -10.265625 14.765625 -10.109375 14.765625 -9.703125 C 14.765625 -9.34375 14.609375 -8.765625 14.359375 -8.109375 L 12.1875 -2.78125 L 10.171875 -8.15625 C 9.765625 -9.265625 9.765625 -9.265625 9.765625 -9.578125 C 9.765625 -10.109375 10.03125 -10.265625 11.15625 -10.4375 L 11.15625 -10.796875 L 6.28125 -10.796875 L 6.28125 -10.4375 C 7.171875 -10.34375 7.46875 -10.0625 7.9375 -8.78125 C 8.0625 -8.453125 8.28125 -7.84375 8.421875 -7.4375 L 6.234375 -2.65625 L 3.859375 -8.921875 C 3.765625 -9.171875 3.71875 -9.40625 3.71875 -9.640625 C 3.71875 -10.15625 3.984375 -10.34375 4.828125 -10.4375 L 4.828125 -10.796875 L 0.5 -10.796875 L 0.5 -10.4375 C 1.0625 -10.390625 1.25 -10.15625 1.78125 -8.921875 L 5.015625 -0.71875 C 5.296875 0.03125 5.5 0.34375 5.640625 0.34375 C 5.765625 0.34375 5.953125 0.046875 6.234375 -0.59375 L 8.921875 -6.359375 L 11.109375 -0.703125 C 11.46875 0.21875 11.515625 0.34375 11.6875 0.34375 C 11.859375 0.34375 11.96875 0.125 12.359375 -0.84375 L 15.671875 -9.140625 C 16.109375 -10.15625 16.171875 -10.265625 16.65625 -10.4375 L 16.65625 -10.796875 Z M 13.703125 -10.796875 "/>
</g>
<g id="glyph-2-4">
</g>
<g id="glyph-2-5">
<path d="M 0.125 0 L 5.875 0 L 5.875 -0.359375 C 4.265625 -0.40625 3.890625 -0.75 3.84375 -2.15625 L 3.84375 -7.5625 C 3.84375 -8.328125 4.84375 -9.53125 5.515625 -9.53125 C 5.65625 -9.53125 5.875 -9.40625 6.140625 -9.171875 C 6.5 -8.8125 6.796875 -8.6875 7.109375 -8.6875 C 7.6875 -8.6875 8.046875 -9.09375 8.046875 -9.765625 C 8.046875 -10.5625 7.53125 -11.046875 6.71875 -11.046875 C 5.71875 -11.046875 5.046875 -10.515625 3.84375 -8.78125 L 3.84375 -10.984375 L 3.71875 -11.046875 C 2.375 -10.515625 1.515625 -10.171875 0.171875 -9.75 L 0.171875 -9.359375 C 0.5 -9.4375 0.71875 -9.453125 1.015625 -9.453125 C 1.609375 -9.453125 1.828125 -9.078125 1.828125 -8.015625 L 1.828125 -2.015625 C 1.78125 -0.765625 1.625 -0.625 0.125 -0.359375 Z M 0.125 0 "/>
</g>
<g id="glyph-2-6">
<path d="M 9.796875 -3.9375 C 8.640625 -2.109375 7.609375 -1.421875 6.078125 -1.421875 C 4.703125 -1.421875 3.671875 -2.109375 2.96875 -3.484375 C 2.546875 -4.390625 2.375 -5.15625 2.328125 -6.640625 L 9.71875 -6.640625 C 9.53125 -8.203125 9.28125 -8.90625 8.6875 -9.671875 C 7.96875 -10.53125 6.859375 -11.046875 5.609375 -11.046875 C 4.421875 -11.046875 3.28125 -10.609375 2.375 -9.796875 C 1.25 -8.8125 0.59375 -7.109375 0.59375 -5.140625 C 0.59375 -1.828125 2.328125 0.234375 5.09375 0.234375 C 7.375 0.234375 9.171875 -1.171875 10.171875 -3.765625 Z M 2.375 -7.421875 C 2.640625 -9.28125 3.453125 -10.171875 4.921875 -10.171875 C 6.390625 -10.171875 6.953125 -9.5 7.265625 -7.421875 Z M 2.375 -7.421875 "/>
</g>
<g id="glyph-2-7">
<path d="M 11.28125 -9.3125 L 11.28125 -10.25 L 9.4375 -10.25 C 8.921875 -10.25 8.59375 -10.3125 8.109375 -10.484375 L 7.578125 -10.6875 C 6.953125 -10.921875 6.28125 -11.046875 5.65625 -11.046875 C 3.4375 -11.046875 1.65625 -9.34375 1.65625 -7.125 C 1.65625 -5.609375 2.28125 -4.703125 3.890625 -3.90625 L 3.265625 -3.34375 C 2.765625 -2.859375 2.46875 -2.59375 2.40625 -2.5 C 1.890625 -1.96875 1.75 -1.703125 1.75 -1.296875 C 1.75 -0.765625 2.015625 -0.5 3.03125 -0.03125 C 1.296875 1.21875 0.671875 2.015625 0.671875 2.90625 C 0.671875 4.171875 2.515625 5.234375 4.828125 5.234375 C 6.625 5.234375 8.5 4.609375 9.75 3.59375 C 10.65625 2.859375 11.0625 2.09375 11.0625 1.171875 C 11.0625 -0.3125 9.9375 -1.296875 8.15625 -1.390625 L 5.0625 -1.53125 C 3.765625 -1.578125 3.1875 -1.796875 3.1875 -2.1875 C 3.1875 -2.65625 3.984375 -3.5 4.625 -3.703125 C 5.5 -3.625 5.953125 -3.578125 6 -3.578125 C 6.890625 -3.578125 7.84375 -3.9375 8.59375 -4.578125 C 9.390625 -5.25 9.75 -6.09375 9.75 -7.296875 C 9.75 -7.984375 9.625 -8.546875 9.28125 -9.3125 Z M 3.53125 0.046875 C 4.34375 0.21875 6.21875 0.359375 7.4375 0.359375 C 9.59375 0.359375 10.390625 0.671875 10.390625 1.53125 C 10.390625 2.921875 8.5625 3.859375 5.859375 3.859375 C 3.71875 3.859375 2.359375 3.171875 2.359375 2.109375 C 2.359375 1.5625 2.5625 1.203125 3.53125 0.046875 Z M 3.640625 -8.109375 C 3.640625 -9.53125 4.3125 -10.375 5.421875 -10.375 C 6.171875 -10.375 6.796875 -9.953125 7.171875 -9.234375 C 7.625 -8.40625 7.890625 -7.3125 7.890625 -6.359375 C 7.890625 -5.015625 7.21875 -4.171875 6.125 -4.171875 C 4.625 -4.171875 3.640625 -5.734375 3.640625 -8.046875 Z M 3.640625 -8.109375 "/>
</g>
<g id="glyph-2-8">
<path d="M 11.5 -1.203125 L 11.375 -1.203125 C 10.203125 -1.25 10.03125 -1.4375 10.015625 -2.5625 L 10.015625 -10.796875 L 6.21875 -10.796875 L 6.21875 -10.390625 C 7.703125 -10.3125 7.984375 -10.078125 7.984375 -8.875 L 7.984375 -3.234375 C 7.984375 -2.5625 7.875 -2.234375 7.53125 -1.96875 C 6.890625 -1.4375 6.140625 -1.15625 5.421875 -1.15625 C 4.484375 -1.15625 3.71875 -1.96875 3.71875 -2.96875 L 3.71875 -10.796875 L 0.21875 -10.796875 L 0.21875 -10.46875 C 1.34375 -10.421875 1.6875 -10.078125 1.703125 -8.921875 L 1.703125 -2.875 C 1.703125 -0.984375 2.859375 0.234375 4.609375 0.234375 C 5.5 0.234375 6.4375 -0.140625 7.078125 -0.796875 L 8.109375 -1.828125 L 8.109375 0.171875 L 8.203125 0.21875 C 9.40625 -0.265625 10.265625 -0.53125 11.5 -0.859375 Z M 11.5 -1.203125 "/>
</g>
<g id="glyph-2-9">
<path d="M 10.609375 -1.578125 C 10.203125 -1.25 9.90625 -1.125 9.546875 -1.125 C 9 -1.125 8.828125 -1.46875 8.828125 -2.515625 L 8.828125 -7.203125 C 8.828125 -8.453125 8.71875 -9.140625 8.359375 -9.71875 C 7.828125 -10.578125 6.796875 -11.046875 5.375 -11.046875 C 3.125 -11.046875 1.34375 -9.859375 1.34375 -8.359375 C 1.34375 -7.796875 1.796875 -7.3125 2.375 -7.3125 C 2.953125 -7.3125 3.453125 -7.796875 3.453125 -8.328125 C 3.453125 -8.421875 3.4375 -8.546875 3.40625 -8.71875 C 3.359375 -8.921875 3.34375 -9.125 3.34375 -9.28125 C 3.34375 -9.9375 4.109375 -10.46875 5.0625 -10.46875 C 6.234375 -10.46875 6.890625 -9.765625 6.890625 -8.46875 L 6.890625 -7.015625 C 3.21875 -5.546875 2.78125 -5.328125 1.75 -4.421875 C 1.21875 -3.9375 0.890625 -3.125 0.890625 -2.328125 C 0.890625 -0.8125 1.9375 0.234375 3.40625 0.234375 C 4.46875 0.234375 5.453125 -0.265625 6.90625 -1.515625 C 7.03125 -0.234375 7.46875 0.234375 8.453125 0.234375 C 9.265625 0.234375 9.765625 -0.046875 10.609375 -0.953125 Z M 6.890625 -2.953125 C 6.890625 -2.234375 6.765625 -1.96875 6.265625 -1.6875 C 5.65625 -1.34375 5.015625 -1.15625 4.515625 -1.15625 C 3.671875 -1.15625 3 -1.96875 3 -3 L 3 -3.09375 C 3.03125 -4.53125 4.078125 -5.453125 6.890625 -6.4375 Z M 6.890625 -2.953125 "/>
</g>
<g id="glyph-2-10">
<path d="M 6.125 -10.796875 L 3.703125 -10.796875 L 3.703125 -13.578125 C 3.703125 -13.828125 3.640625 -13.890625 3.53125 -13.890625 C 2.140625 -11.875 1.421875 -11.0625 0.71875 -10.65625 C 0.453125 -10.484375 0.3125 -10.34375 0.3125 -10.203125 C 0.3125 -10.125 0.34375 -10.078125 0.40625 -10.03125 L 1.6875 -10.03125 L 1.6875 -2.8125 C 1.6875 -0.796875 2.40625 0.234375 3.8125 0.234375 C 4.984375 0.234375 5.90625 -0.34375 6.703125 -1.578125 L 6.390625 -1.84375 C 5.859375 -1.21875 5.46875 -1.015625 4.9375 -1.015625 C 4.0625 -1.015625 3.703125 -1.65625 3.703125 -3.171875 L 3.703125 -10.03125 L 6.125 -10.03125 Z M 6.125 -10.796875 "/>
</g>
<g id="glyph-2-11">
<path d="M 0.390625 0 L 6.078125 0 L 6.078125 -0.359375 C 4.484375 -0.484375 4.3125 -0.703125 4.296875 -2.453125 L 4.296875 -10.96875 L 4.203125 -11.046875 L 0.484375 -9.71875 L 0.484375 -9.359375 L 0.671875 -9.390625 C 0.953125 -9.4375 1.25 -9.453125 1.484375 -9.453125 C 2.0625 -9.453125 2.28125 -9.078125 2.28125 -8.015625 L 2.28125 -2.453125 C 2.234375 -0.671875 2.015625 -0.4375 0.390625 -0.359375 Z M 3.078125 -16.390625 C 2.421875 -16.390625 1.875 -15.84375 1.875 -15.171875 C 1.875 -14.46875 2.40625 -13.9375 3.078125 -13.9375 C 3.796875 -13.9375 4.3125 -14.46875 4.3125 -15.171875 C 4.3125 -15.859375 3.765625 -16.390625 3.078125 -16.390625 Z M 3.078125 -16.390625 "/>
</g>
<g id="glyph-2-12">
<path d="M 0.4375 0 L 5.515625 0 L 5.515625 -0.359375 C 4.3125 -0.4375 3.9375 -0.75 3.9375 -1.609375 L 3.9375 -8.359375 C 5.09375 -9.4375 5.609375 -9.71875 6.40625 -9.71875 C 7.578125 -9.71875 8.15625 -8.96875 8.15625 -7.390625 L 8.15625 -2.375 C 8.109375 -0.8125 7.828125 -0.4375 6.640625 -0.359375 L 6.640625 0 L 11.640625 0 L 11.640625 -0.359375 C 10.46875 -0.484375 10.203125 -0.765625 10.171875 -1.9375 L 10.171875 -7.4375 C 10.171875 -9.703125 9.125 -11.046875 7.34375 -11.046875 C 6.234375 -11.046875 5.5 -10.625 3.859375 -9.09375 L 3.859375 -10.984375 L 3.703125 -11.046875 C 2.453125 -10.578125 1.625 -10.3125 0.390625 -9.953125 L 0.390625 -9.546875 C 0.546875 -9.625 0.765625 -9.640625 1.03125 -9.640625 C 1.703125 -9.640625 1.921875 -9.28125 1.921875 -8.109375 L 1.921875 -2.15625 C 1.890625 -0.75 1.625 -0.4375 0.4375 -0.359375 Z M 0.4375 0 "/>
</g>
<g id="glyph-3-0">
<path d="M 12.703125 -0.34375 C 11.890625 -0.390625 11.71875 -0.578125 11.09375 -1.90625 L 6.609375 -12.125 L 6.25 -12.125 L 2.5 -3.296875 C 1.34375 -0.671875 1.140625 -0.375 0.265625 -0.34375 L 0.265625 0 L 3.828125 0 L 3.828125 -0.34375 C 2.96875 -0.34375 2.609375 -0.5625 2.609375 -1.078125 C 2.609375 -1.296875 2.65625 -1.546875 2.75 -1.78125 L 3.578125 -3.890625 L 8.296875 -3.890625 L 9.03125 -2.15625 C 9.25 -1.671875 9.375 -1.203125 9.375 -0.953125 C 9.375 -0.5 9.078125 -0.359375 8.125 -0.34375 L 8.125 0 L 12.703125 0 Z M 3.890625 -4.625 L 5.953125 -9.578125 L 8.046875 -4.625 Z M 3.890625 -4.625 "/>
</g>
<g id="glyph-3-1">
<path d="M 9.59375 0 L 9.59375 -0.265625 C 8.125 -0.328125 7.921875 -0.515625 7.921875 -1.875 L 7.921875 -7.53125 L 10.109375 -7.53125 L 10.109375 -8.09375 L 7.90625 -8.09375 L 7.90625 -10.1875 C 7.90625 -11.234375 8.25 -11.796875 8.921875 -11.796875 C 9.328125 -11.796875 9.5625 -11.609375 9.875 -11.09375 C 10.171875 -10.625 10.390625 -10.4375 10.6875 -10.4375 C 11.125 -10.4375 11.453125 -10.765625 11.453125 -11.171875 C 11.453125 -11.828125 10.671875 -12.296875 9.59375 -12.296875 C 8.671875 -12.296875 7.84375 -11.96875 7.328125 -11.40625 C 7.140625 -11.953125 6.4375 -12.296875 5.484375 -12.296875 C 4.359375 -12.296875 3.421875 -11.8125 2.953125 -11 C 2.484375 -10.1875 2.34375 -9.546875 2.328125 -8.09375 L 0.84375 -8.09375 L 0.84375 -7.53125 L 2.328125 -7.53125 L 2.328125 -1.875 C 2.28125 -0.515625 2.109375 -0.328125 0.828125 -0.265625 L 0.828125 0 Z M 3.8125 -8.09375 L 3.8125 -10.1875 C 3.8125 -11.25 4.15625 -11.796875 4.84375 -11.796875 C 5.234375 -11.796875 5.46875 -11.609375 5.796875 -11.09375 C 6.078125 -10.625 6.296875 -10.4375 6.609375 -10.4375 C 6.671875 -10.4375 6.703125 -10.4375 6.765625 -10.453125 C 6.5 -9.75 6.40625 -9.125 6.40625 -8.09375 Z M 6.40625 -7.53125 L 6.40625 -1.875 C 6.375 -0.546875 6.1875 -0.34375 5 -0.265625 C 3.984375 -0.34375 3.828125 -0.546875 3.828125 -1.875 L 3.828125 -7.53125 Z M 6.40625 -7.53125 "/>
</g>
<g id="glyph-3-2">
<path d="M 7.34375 -2.953125 C 6.484375 -1.578125 5.703125 -1.0625 4.546875 -1.0625 C 3.53125 -1.0625 2.75 -1.578125 2.234375 -2.609375 C 1.90625 -3.296875 1.78125 -3.875 1.75 -4.984375 L 7.296875 -4.984375 C 7.140625 -6.15625 6.96875 -6.671875 6.515625 -7.25 C 5.96875 -7.90625 5.140625 -8.28125 4.21875 -8.28125 C 3.3125 -8.28125 2.46875 -7.953125 1.78125 -7.34375 C 0.9375 -6.609375 0.453125 -5.328125 0.453125 -3.859375 C 0.453125 -1.375 1.75 0.1875 3.8125 0.1875 C 5.53125 0.1875 6.875 -0.875 7.625 -2.828125 Z M 1.78125 -5.5625 C 1.984375 -6.96875 2.59375 -7.625 3.6875 -7.625 C 4.78125 -7.625 5.21875 -7.125 5.453125 -5.5625 Z M 1.78125 -5.5625 "/>
</g>
<g id="glyph-3-3">
<path d="M 7.15625 -2.8125 C 6.296875 -1.546875 5.65625 -1.109375 4.625 -1.109375 C 2.96875 -1.109375 1.84375 -2.5625 1.84375 -4.625 C 1.84375 -6.5 2.828125 -7.765625 4.28125 -7.765625 C 4.9375 -7.765625 5.171875 -7.578125 5.34375 -6.890625 L 5.453125 -6.5 C 5.59375 -5.96875 5.921875 -5.671875 6.3125 -5.671875 C 6.78125 -5.671875 7.15625 -6.015625 7.15625 -6.421875 C 7.15625 -7.4375 5.90625 -8.28125 4.390625 -8.28125 C 3.515625 -8.28125 2.59375 -7.921875 1.859375 -7.265625 C 0.953125 -6.484375 0.453125 -5.25 0.453125 -3.8125 C 0.453125 -1.5 1.875 0.1875 3.875 0.1875 C 4.6875 0.1875 5.40625 -0.109375 6.046875 -0.671875 C 6.53125 -1.078125 6.875 -1.578125 7.421875 -2.640625 Z M 7.15625 -2.8125 "/>
</g>
<g id="glyph-3-4">
<path d="M 4.59375 -8.09375 L 2.765625 -8.09375 L 2.765625 -10.1875 C 2.765625 -10.375 2.734375 -10.421875 2.640625 -10.421875 C 1.609375 -8.90625 1.0625 -8.296875 0.546875 -7.984375 C 0.34375 -7.859375 0.234375 -7.765625 0.234375 -7.65625 C 0.234375 -7.59375 0.25 -7.5625 0.3125 -7.53125 L 1.265625 -7.53125 L 1.265625 -2.109375 C 1.265625 -0.59375 1.796875 0.1875 2.859375 0.1875 C 3.75 0.1875 4.421875 -0.25 5.015625 -1.1875 L 4.78125 -1.390625 C 4.390625 -0.921875 4.109375 -0.75 3.703125 -0.75 C 3.046875 -0.75 2.765625 -1.234375 2.765625 -2.375 L 2.765625 -7.53125 L 4.59375 -7.53125 Z M 4.59375 -8.09375 "/>
</g>
<g id="glyph-4-0">
<path d="M 0 -0.28125 L 0 -5.40625 C 0 -7.484375 -0.59375 -9.375 -1.609375 -10.5 C -2.65625 -11.65625 -4.265625 -12.328125 -6.015625 -12.328125 C -7.625 -12.328125 -9.03125 -11.8125 -10.03125 -10.796875 C -11.265625 -9.578125 -11.921875 -7.609375 -11.921875 -5.140625 L -11.921875 -0.28125 L -11.578125 -0.28125 C -11.453125 -1.703125 -11.296875 -1.859375 -9.953125 -1.875 L -1.96875 -1.875 C -0.640625 -1.859375 -0.4375 -1.640625 -0.34375 -0.28125 Z M -10.546875 -3.703125 C -11.109375 -3.703125 -11.25 -3.890625 -11.25 -4.640625 C -11.25 -6.203125 -10.96875 -7.359375 -10.34375 -8.21875 C -9.375 -9.625 -7.828125 -10.375 -5.890625 -10.375 C -3.765625 -10.375 -2.25 -9.625 -1.40625 -8.171875 C -0.875 -7.25 -0.671875 -6.203125 -0.671875 -4.640625 C -0.671875 -3.921875 -0.828125 -3.703125 -1.40625 -3.703125 Z M -10.546875 -3.703125 "/>
</g>
<g id="glyph-4-1">
<path d="M -2.953125 -7.34375 C -1.578125 -6.484375 -1.0625 -5.703125 -1.0625 -4.546875 C -1.0625 -3.53125 -1.578125 -2.75 -2.609375 -2.234375 C -3.296875 -1.90625 -3.875 -1.78125 -4.984375 -1.75 L -4.984375 -7.296875 C -6.15625 -7.140625 -6.671875 -6.96875 -7.25 -6.515625 C -7.90625 -5.96875 -8.28125 -5.140625 -8.28125 -4.21875 C -8.28125 -3.3125 -7.953125 -2.46875 -7.34375 -1.78125 C -6.609375 -0.9375 -5.328125 -0.453125 -3.859375 -0.453125 C -1.375 -0.453125 0.1875 -1.75 0.1875 -3.8125 C 0.1875 -5.53125 -0.875 -6.875 -2.828125 -7.625 Z M -5.5625 -1.78125 C -6.96875 -1.984375 -7.625 -2.59375 -7.625 -3.6875 C -7.625 -4.78125 -7.125 -5.21875 -5.5625 -5.453125 Z M -5.5625 -1.78125 "/>
</g>
<g id="glyph-4-2">
<path d="M 0 -0.328125 L 0 -4.140625 L -0.265625 -4.140625 C -0.328125 -3.234375 -0.5625 -2.953125 -1.203125 -2.953125 L -6.265625 -2.953125 C -7.078125 -3.8125 -7.296875 -4.21875 -7.296875 -4.8125 C -7.296875 -5.6875 -6.734375 -6.125 -5.546875 -6.125 L -1.78125 -6.125 C -0.609375 -6.078125 -0.328125 -5.875 -0.265625 -4.984375 L 0 -4.984375 L 0 -8.734375 L -0.265625 -8.734375 C -0.359375 -7.84375 -0.578125 -7.65625 -1.453125 -7.625 L -5.578125 -7.625 C -7.265625 -7.625 -8.28125 -6.84375 -8.28125 -5.515625 C -8.28125 -4.6875 -7.96875 -4.125 -6.828125 -2.890625 L -8.25 -2.890625 L -8.28125 -2.765625 C -7.9375 -1.84375 -7.734375 -1.21875 -7.46875 -0.28125 L -7.15625 -0.28125 C -7.21875 -0.40625 -7.234375 -0.578125 -7.234375 -0.78125 C -7.234375 -1.28125 -6.96875 -1.4375 -6.078125 -1.4375 L -1.625 -1.4375 C -0.5625 -1.421875 -0.328125 -1.21875 -0.265625 -0.328125 Z M 0 -0.328125 "/>
</g>
<g id="glyph-4-3">
<path d="M -5.65625 -5.671875 L -8.125 -5.59375 L -8.125 -5.40625 C -7.96875 -5.3125 -7.921875 -5.21875 -7.921875 -5.109375 C -7.921875 -5 -7.953125 -4.828125 -8.046875 -4.625 C -8.1875 -4.21875 -8.28125 -3.796875 -8.28125 -3.359375 C -8.28125 -1.9375 -7.34375 -0.921875 -6.046875 -0.921875 C -5.046875 -0.921875 -4.3125 -1.5 -3.453125 -3.03125 L -2.859375 -4.0625 C -2.5 -4.703125 -2.0625 -5 -1.515625 -5 C -0.71875 -5 -0.21875 -4.421875 -0.21875 -3.515625 C -0.21875 -2.265625 -0.90625 -1.640625 -2.734375 -1.21875 L -2.734375 -0.9375 L 0.078125 -0.9375 L 0.078125 -1.171875 C -0.109375 -1.296875 -0.140625 -1.375 -0.140625 -1.578125 C -0.140625 -1.78125 -0.109375 -2 0 -2.40625 C 0.109375 -2.890625 0.1875 -3.359375 0.1875 -3.71875 C 0.1875 -5.125 -0.859375 -6.265625 -2.125 -6.265625 C -3.03125 -6.265625 -3.625 -5.828125 -4.265625 -4.75 L -5.421875 -2.8125 C -5.71875 -2.296875 -6.15625 -2.03125 -6.640625 -2.03125 C -7.375 -2.03125 -7.859375 -2.59375 -7.859375 -3.421875 C -7.859375 -4.453125 -7.265625 -4.984375 -5.65625 -5.40625 Z M -5.65625 -5.671875 "/>
</g>
<g id="glyph-4-4">
<path d="M 0 -0.28125 L 0 -4.546875 L -0.265625 -4.546875 C -0.359375 -3.359375 -0.515625 -3.234375 -1.84375 -3.21875 L -8.21875 -3.21875 L -8.28125 -3.15625 L -7.296875 -0.359375 L -7.015625 -0.359375 L -7.03125 -0.5 C -7.078125 -0.71875 -7.09375 -0.9375 -7.09375 -1.109375 C -7.09375 -1.546875 -6.796875 -1.703125 -6.015625 -1.703125 L -1.84375 -1.703125 C -0.5 -1.671875 -0.328125 -1.515625 -0.265625 -0.28125 Z M -12.296875 -2.296875 C -12.296875 -1.8125 -11.875 -1.40625 -11.375 -1.40625 C -10.859375 -1.40625 -10.453125 -1.796875 -10.453125 -2.296875 C -10.453125 -2.84375 -10.859375 -3.234375 -11.375 -3.234375 C -11.890625 -3.234375 -12.296875 -2.828125 -12.296875 -2.296875 Z M -12.296875 -2.296875 "/>
</g>
<g id="glyph-4-5">
<path d="M -8.09375 -4.59375 L -8.09375 -2.765625 L -10.1875 -2.765625 C -10.375 -2.765625 -10.421875 -2.734375 -10.421875 -2.640625 C -8.90625 -1.609375 -8.296875 -1.0625 -7.984375 -0.546875 C -7.859375 -0.34375 -7.765625 -0.234375 -7.65625 -0.234375 C -7.59375 -0.234375 -7.5625 -0.25 -7.53125 -0.3125 L -7.53125 -1.265625 L -2.109375 -1.265625 C -0.59375 -1.265625 0.1875 -1.796875 0.1875 -2.859375 C 0.1875 -3.75 -0.25 -4.421875 -1.1875 -5.015625 L -1.390625 -4.78125 C -0.921875 -4.390625 -0.75 -4.109375 -0.75 -3.703125 C -0.75 -3.046875 -1.234375 -2.765625 -2.375 -2.765625 L -7.53125 -2.765625 L -7.53125 -4.59375 Z M -8.09375 -4.59375 "/>
</g>
<g id="glyph-4-6">
<path d="M -8.09375 -8.546875 L -8.09375 -6.125 L -7.828125 -6.125 C -7.828125 -6.703125 -7.671875 -6.984375 -7.375 -6.984375 C -7.3125 -6.984375 -7.203125 -6.96875 -7.078125 -6.90625 L -2.109375 -5.171875 L -6.65625 -3.09375 C -6.90625 -2.984375 -7.15625 -2.921875 -7.34375 -2.921875 C -7.671875 -2.921875 -7.796875 -3.1875 -7.828125 -3.953125 L -8.09375 -3.953125 L -8.09375 -0.25 L -7.84375 -0.25 C -7.78125 -0.71875 -7.578125 -1.03125 -7.265625 -1.171875 L -2.84375 -3.21875 C -2.359375 -3.4375 -2.34375 -3.453125 -2.15625 -3.546875 C -1.265625 -4.046875 -0.59375 -4.34375 -0.328125 -4.34375 C -0.03125 -4.34375 1.0625 -3.921875 1.625 -3.625 C 2.0625 -3.34375 2.40625 -2.96875 2.40625 -2.71875 C 2.40625 -2.609375 2.375 -2.453125 2.28125 -2.25 C 2.15625 -1.921875 2.09375 -1.609375 2.09375 -1.3125 C 2.09375 -0.875 2.4375 -0.546875 2.875 -0.546875 C 3.46875 -0.546875 3.921875 -1.09375 3.921875 -1.875 C 3.921875 -3.09375 2.9375 -3.921875 0.328125 -4.90625 L -7.015625 -7.6875 C -7.59375 -7.921875 -7.78125 -8.125 -7.828125 -8.546875 Z M -8.09375 -8.546875 "/>
</g>
<g id="glyph-5-0">
<path d="M 5.421875 -0.234375 C 4.4375 -0.28125 4.28125 -0.421875 4.265625 -1.3125 L 4.265625 -7.4375 L 4.921875 -7.4375 C 6.3125 -7.421875 6.5625 -7.21875 6.828125 -5.90625 L 7.109375 -5.90625 L 7.046875 -7.9375 L 0.28125 -7.9375 L 0.203125 -5.90625 L 0.484375 -5.90625 C 0.765625 -7.21875 1.015625 -7.421875 2.40625 -7.4375 L 3.046875 -7.4375 L 3.046875 -1.4375 C 3.03125 -0.40625 2.921875 -0.28125 1.921875 -0.234375 L 1.921875 0 L 5.421875 0 Z M 5.421875 -0.234375 "/>
</g>
<g id="glyph-5-1">
<path d="M 5.84375 -0.1875 C 5.203125 -0.28125 5.140625 -0.375 5.125 -1.21875 L 5.125 -3.609375 C 5.125 -4.875 4.625 -5.515625 3.640625 -5.515625 C 2.9375 -5.515625 2.4375 -5.234375 1.890625 -4.515625 L 1.890625 -8.15625 L 1.828125 -8.203125 C 1.40625 -8.046875 1.109375 -7.953125 0.4375 -7.765625 L 0.125 -7.671875 L 0.125 -7.46875 C 0.171875 -7.484375 0.1875 -7.484375 0.265625 -7.484375 C 0.78125 -7.484375 0.875 -7.390625 0.875 -6.875 L 0.875 -1.21875 C 0.859375 -0.359375 0.796875 -0.265625 0.109375 -0.1875 L 0.109375 0 L 2.703125 0 L 2.703125 -0.1875 C 2 -0.234375 1.90625 -0.375 1.890625 -1.21875 L 1.890625 -4.109375 C 2.390625 -4.671875 2.75 -4.875 3.234375 -4.875 C 3.8125 -4.875 4.109375 -4.4375 4.109375 -3.59375 L 4.109375 -1.21875 C 4.09375 -0.375 3.984375 -0.234375 3.296875 -0.1875 L 3.296875 0 L 5.84375 0 Z M 5.84375 -0.1875 "/>
</g>
<g id="glyph-5-2">
<path d="M 4.890625 -1.96875 C 4.3125 -1.0625 3.796875 -0.703125 3.03125 -0.703125 C 2.359375 -0.703125 1.84375 -1.0625 1.484375 -1.734375 C 1.265625 -2.203125 1.1875 -2.578125 1.15625 -3.328125 L 4.859375 -3.328125 C 4.765625 -4.109375 4.640625 -4.453125 4.34375 -4.84375 C 3.984375 -5.265625 3.4375 -5.515625 2.8125 -5.515625 C 2.203125 -5.515625 1.640625 -5.296875 1.1875 -4.890625 C 0.625 -4.40625 0.296875 -3.546875 0.296875 -2.5625 C 0.296875 -0.90625 1.15625 0.125 2.546875 0.125 C 3.6875 0.125 4.578125 -0.59375 5.09375 -1.890625 Z M 1.1875 -3.703125 C 1.3125 -4.640625 1.734375 -5.09375 2.453125 -5.09375 C 3.1875 -5.09375 3.484375 -4.75 3.640625 -3.703125 Z M 1.1875 -3.703125 "/>
</g>
<g id="glyph-5-3">
<path d="M 3 -5.515625 C 1.421875 -5.515625 0.34375 -4.375 0.34375 -2.71875 C 0.34375 -1.078125 1.46875 0.125 2.96875 0.125 C 4.484375 0.125 5.640625 -1.140625 5.640625 -2.8125 C 5.640625 -4.390625 4.53125 -5.515625 3 -5.515625 Z M 2.84375 -5.1875 C 3.859375 -5.1875 4.5625 -4.03125 4.5625 -2.390625 C 4.5625 -1.015625 4.015625 -0.21875 3.125 -0.21875 C 2.65625 -0.21875 2.203125 -0.5 1.953125 -0.984375 C 1.625 -1.609375 1.421875 -2.453125 1.421875 -3.296875 C 1.421875 -4.4375 1.984375 -5.1875 2.84375 -5.1875 Z M 2.84375 -5.1875 "/>
</g>
<g id="glyph-5-4">
<path d="M 0.0625 0 L 2.9375 0 L 2.9375 -0.1875 C 2.140625 -0.203125 1.9375 -0.375 1.921875 -1.078125 L 1.921875 -3.78125 C 1.921875 -4.15625 2.421875 -4.765625 2.765625 -4.765625 C 2.828125 -4.765625 2.9375 -4.703125 3.078125 -4.578125 C 3.25 -4.40625 3.390625 -4.34375 3.546875 -4.34375 C 3.84375 -4.34375 4.015625 -4.546875 4.015625 -4.890625 C 4.015625 -5.28125 3.765625 -5.515625 3.359375 -5.515625 C 2.859375 -5.515625 2.515625 -5.25 1.921875 -4.390625 L 1.921875 -5.5 L 1.859375 -5.515625 C 1.1875 -5.25 0.75 -5.09375 0.078125 -4.875 L 0.078125 -4.6875 C 0.25 -4.71875 0.359375 -4.734375 0.5 -4.734375 C 0.796875 -4.734375 0.90625 -4.53125 0.90625 -4.015625 L 0.90625 -1.015625 C 0.890625 -0.390625 0.8125 -0.3125 0.0625 -0.1875 Z M 0.0625 0 "/>
</g>
<g id="glyph-5-5">
<path d="M 3.0625 -5.40625 L 1.84375 -5.40625 L 1.84375 -6.796875 C 1.84375 -6.90625 1.828125 -6.953125 1.765625 -6.953125 C 1.0625 -5.9375 0.703125 -5.53125 0.359375 -5.328125 C 0.234375 -5.25 0.15625 -5.171875 0.15625 -5.09375 C 0.15625 -5.0625 0.171875 -5.046875 0.203125 -5.015625 L 0.84375 -5.015625 L 0.84375 -1.40625 C 0.84375 -0.390625 1.203125 0.125 1.90625 0.125 C 2.5 0.125 2.953125 -0.171875 3.34375 -0.796875 L 3.1875 -0.921875 C 2.921875 -0.609375 2.734375 -0.5 2.46875 -0.5 C 2.03125 -0.5 1.84375 -0.828125 1.84375 -1.578125 L 1.84375 -5.015625 L 3.0625 -5.015625 Z M 3.0625 -5.40625 "/>
</g>
<g id="glyph-5-6">
<path d="M 0.1875 0 L 3.03125 0 L 3.03125 -0.1875 C 2.25 -0.234375 2.15625 -0.34375 2.140625 -1.21875 L 2.140625 -5.484375 L 2.09375 -5.515625 L 0.234375 -4.859375 L 0.234375 -4.6875 L 0.34375 -4.6875 C 0.484375 -4.71875 0.625 -4.734375 0.75 -4.734375 C 1.03125 -4.734375 1.140625 -4.53125 1.140625 -4.015625 L 1.140625 -1.21875 C 1.109375 -0.34375 1.015625 -0.21875 0.1875 -0.1875 Z M 1.53125 -8.203125 C 1.21875 -8.203125 0.9375 -7.921875 0.9375 -7.578125 C 0.9375 -7.234375 1.203125 -6.96875 1.53125 -6.96875 C 1.890625 -6.96875 2.15625 -7.234375 2.15625 -7.578125 C 2.15625 -7.9375 1.890625 -8.203125 1.53125 -8.203125 Z M 1.53125 -8.203125 "/>
</g>
<g id="glyph-5-7">
<path d="M 4.78125 -1.875 C 4.203125 -1.03125 3.765625 -0.75 3.078125 -0.75 C 1.984375 -0.75 1.21875 -1.703125 1.21875 -3.078125 C 1.21875 -4.328125 1.890625 -5.171875 2.859375 -5.171875 C 3.28125 -5.171875 3.4375 -5.046875 3.5625 -4.59375 L 3.640625 -4.328125 C 3.734375 -3.984375 3.953125 -3.78125 4.21875 -3.78125 C 4.53125 -3.78125 4.78125 -4.015625 4.78125 -4.28125 C 4.78125 -4.953125 3.9375 -5.515625 2.921875 -5.515625 C 2.34375 -5.515625 1.734375 -5.28125 1.234375 -4.84375 C 0.640625 -4.3125 0.296875 -3.5 0.296875 -2.546875 C 0.296875 -1 1.25 0.125 2.578125 0.125 C 3.125 0.125 3.59375 -0.078125 4.03125 -0.4375 C 4.359375 -0.71875 4.578125 -1.0625 4.9375 -1.765625 Z M 4.78125 -1.875 "/>
</g>
<g id="glyph-5-8">
<path d="M 5.296875 -0.796875 C 5.09375 -0.625 4.953125 -0.5625 4.78125 -0.5625 C 4.5 -0.5625 4.421875 -0.734375 4.421875 -1.265625 L 4.421875 -3.59375 C 4.421875 -4.21875 4.359375 -4.578125 4.171875 -4.859375 C 3.90625 -5.296875 3.390625 -5.515625 2.6875 -5.515625 C 1.5625 -5.515625 0.671875 -4.9375 0.671875 -4.171875 C 0.671875 -3.90625 0.90625 -3.65625 1.1875 -3.65625 C 1.46875 -3.65625 1.734375 -3.90625 1.734375 -4.15625 C 1.734375 -4.21875 1.71875 -4.265625 1.703125 -4.359375 C 1.6875 -4.46875 1.671875 -4.5625 1.671875 -4.640625 C 1.671875 -4.96875 2.046875 -5.234375 2.53125 -5.234375 C 3.125 -5.234375 3.4375 -4.890625 3.4375 -4.234375 L 3.4375 -3.5 C 1.609375 -2.765625 1.390625 -2.65625 0.875 -2.203125 C 0.609375 -1.96875 0.4375 -1.5625 0.4375 -1.15625 C 0.4375 -0.40625 0.96875 0.125 1.703125 0.125 C 2.234375 0.125 2.71875 -0.125 3.453125 -0.75 C 3.515625 -0.125 3.734375 0.125 4.21875 0.125 C 4.625 0.125 4.890625 -0.03125 5.296875 -0.484375 Z M 3.4375 -1.46875 C 3.4375 -1.109375 3.390625 -0.984375 3.125 -0.84375 C 2.828125 -0.671875 2.515625 -0.578125 2.25 -0.578125 C 1.84375 -0.578125 1.5 -0.984375 1.5 -1.5 L 1.5 -1.546875 C 1.515625 -2.265625 2.046875 -2.71875 3.4375 -3.21875 Z M 3.4375 -1.46875 "/>
</g>
<g id="glyph-5-9">
<path d="M 0.25 0 L 3.078125 0 L 3.078125 -0.1875 C 2.328125 -0.21875 2.203125 -0.34375 2.1875 -1.015625 L 2.1875 -8.171875 L 2.140625 -8.203125 C 1.53125 -8 1.078125 -7.875 0.234375 -7.671875 L 0.234375 -7.46875 L 0.296875 -7.46875 C 0.4375 -7.484375 0.578125 -7.5 0.671875 -7.5 C 1.0625 -7.5 1.171875 -7.328125 1.171875 -6.765625 L 1.171875 -1.046875 C 1.15625 -0.390625 1 -0.234375 0.25 -0.1875 Z M 0.25 0 "/>
</g>
<g id="glyph-5-10">
<path d="M 0.1875 0 L 3.59375 0 C 4.984375 0 6.25 -0.390625 7 -1.0625 C 7.78125 -1.78125 8.21875 -2.84375 8.21875 -4.015625 C 8.21875 -5.09375 7.875 -6.03125 7.203125 -6.6875 C 6.390625 -7.515625 5.078125 -7.9375 3.4375 -7.9375 L 0.1875 -7.9375 L 0.1875 -7.71875 C 1.140625 -7.625 1.234375 -7.53125 1.25 -6.640625 L 1.25 -1.3125 C 1.234375 -0.4375 1.09375 -0.28125 0.1875 -0.234375 Z M 2.46875 -7.03125 C 2.46875 -7.40625 2.59375 -7.5 3.09375 -7.5 C 4.140625 -7.5 4.90625 -7.3125 5.484375 -6.90625 C 6.421875 -6.25 6.90625 -5.21875 6.90625 -3.921875 C 6.90625 -2.515625 6.421875 -1.5 5.453125 -0.9375 C 4.84375 -0.59375 4.140625 -0.4375 3.09375 -0.4375 C 2.609375 -0.4375 2.46875 -0.546875 2.46875 -0.9375 Z M 2.46875 -7.03125 "/>
</g>
<g id="glyph-5-11">
<path d="M 0.1875 0 L 2.859375 0 L 2.859375 -0.1875 C 2.25 -0.1875 2.046875 -0.328125 2.046875 -0.796875 L 2.046875 -4.1875 C 2.046875 -4.21875 2.140625 -4.328125 2.21875 -4.421875 C 2.515625 -4.6875 3.03125 -4.890625 3.453125 -4.890625 C 3.984375 -4.890625 4.25 -4.46875 4.25 -3.640625 L 4.25 -1.03125 C 4.21875 -0.34375 4.109375 -0.21875 3.4375 -0.1875 L 3.4375 0 L 6.125 0 L 6.125 -0.1875 C 5.453125 -0.1875 5.28125 -0.375 5.25 -1.140625 L 5.25 -4.15625 C 5.609375 -4.6875 6 -4.890625 6.5625 -4.890625 C 7.25 -4.890625 7.46875 -4.578125 7.46875 -3.578125 L 7.46875 -1.046875 C 7.4375 -0.34375 7.375 -0.25 6.671875 -0.1875 L 6.671875 0 L 9.296875 0 L 9.296875 -0.1875 L 8.984375 -0.203125 C 8.609375 -0.265625 8.46875 -0.4375 8.46875 -0.90625 L 8.46875 -3.390625 C 8.46875 -4.796875 8 -5.515625 7.078125 -5.515625 C 6.390625 -5.515625 5.765625 -5.203125 5.125 -4.515625 C 4.90625 -5.203125 4.5 -5.515625 3.859375 -5.515625 C 3.3125 -5.515625 2.984375 -5.359375 1.984375 -4.59375 L 1.984375 -5.5 L 1.90625 -5.515625 C 1.265625 -5.296875 0.859375 -5.15625 0.234375 -4.984375 L 0.234375 -4.78125 C 0.375 -4.8125 0.484375 -4.828125 0.609375 -4.828125 C 0.921875 -4.828125 1.03125 -4.625 1.03125 -4.0625 L 1.03125 -1.015625 C 1.015625 -0.34375 0.859375 -0.1875 0.1875 -0.1875 Z M 0.1875 0 "/>
</g>
<g id="glyph-5-12">
<path d="M 0.21875 0 L 2.765625 0 L 2.765625 -0.1875 C 2.15625 -0.21875 1.96875 -0.375 1.96875 -0.796875 L 1.96875 -4.171875 C 2.546875 -4.71875 2.8125 -4.859375 3.203125 -4.859375 C 3.796875 -4.859375 4.078125 -4.484375 4.078125 -3.703125 L 4.078125 -1.1875 C 4.0625 -0.40625 3.90625 -0.21875 3.328125 -0.1875 L 3.328125 0 L 5.8125 0 L 5.8125 -0.1875 C 5.234375 -0.234375 5.09375 -0.390625 5.09375 -0.96875 L 5.09375 -3.71875 C 5.09375 -4.84375 4.5625 -5.515625 3.671875 -5.515625 C 3.125 -5.515625 2.75 -5.3125 1.9375 -4.546875 L 1.9375 -5.5 L 1.84375 -5.515625 C 1.21875 -5.296875 0.8125 -5.15625 0.1875 -4.984375 L 0.1875 -4.78125 C 0.28125 -4.8125 0.390625 -4.828125 0.515625 -4.828125 C 0.859375 -4.828125 0.953125 -4.640625 0.953125 -4.0625 L 0.953125 -1.078125 C 0.953125 -0.375 0.8125 -0.21875 0.21875 -0.1875 Z M 0.21875 0 "/>
</g>
<g id="glyph-5-13">
<path d="M 3.78125 -3.765625 L 3.734375 -5.40625 L 3.59375 -5.40625 C 3.546875 -5.3125 3.484375 -5.28125 3.40625 -5.28125 C 3.34375 -5.28125 3.21875 -5.296875 3.078125 -5.359375 C 2.8125 -5.453125 2.53125 -5.515625 2.25 -5.515625 C 1.296875 -5.515625 0.609375 -4.890625 0.609375 -4.03125 C 0.609375 -3.359375 1 -2.875 2.015625 -2.296875 L 2.71875 -1.90625 C 3.125 -1.671875 3.34375 -1.375 3.34375 -1.015625 C 3.34375 -0.484375 2.953125 -0.140625 2.34375 -0.140625 C 1.515625 -0.140625 1.09375 -0.59375 0.8125 -1.828125 L 0.625 -1.828125 L 0.625 0.046875 L 0.78125 0.046875 C 0.859375 -0.078125 0.90625 -0.09375 1.0625 -0.09375 C 1.1875 -0.09375 1.328125 -0.078125 1.609375 0 C 1.9375 0.078125 2.25 0.125 2.484375 0.125 C 3.421875 0.125 4.171875 -0.578125 4.171875 -1.421875 C 4.171875 -2.015625 3.890625 -2.40625 3.171875 -2.84375 L 1.875 -3.609375 C 1.53125 -3.8125 1.359375 -4.109375 1.359375 -4.421875 C 1.359375 -4.921875 1.734375 -5.25 2.28125 -5.25 C 2.96875 -5.25 3.328125 -4.84375 3.59375 -3.765625 Z M 3.78125 -3.765625 "/>
</g>
<g id="glyph-5-14">
</g>
<g id="glyph-5-15">
<path d="M 1.421875 0 L 4.734375 0 L 4.734375 -0.1875 C 3.796875 -0.1875 3.59375 -0.3125 3.59375 -0.890625 L 3.59375 -8.09375 L 3.484375 -8.109375 L 1.328125 -7.015625 L 1.328125 -6.859375 C 1.796875 -7.03125 2.09375 -7.109375 2.203125 -7.109375 C 2.453125 -7.109375 2.5625 -6.9375 2.5625 -6.546875 L 2.5625 -1.109375 C 2.53125 -0.359375 2.328125 -0.1875 1.421875 -0.1875 Z M 1.421875 0 "/>
</g>
</g>
<clipPath id="clip-0">
<path clip-rule="nonzero" d="M 73.441406 242 L 453 242 L 453 243 L 73.441406 243 Z M 73.441406 242 "/>
</clipPath>
<clipPath id="clip-1">
<path clip-rule="nonzero" d="M 73.441406 199 L 453 199 L 453 201 L 73.441406 201 Z M 73.441406 199 "/>
</clipPath>
<clipPath id="clip-2">
<path clip-rule="nonzero" d="M 73.441406 157 L 453 157 L 453 159 L 73.441406 159 Z M 73.441406 157 "/>
</clipPath>
<clipPath id="clip-3">
<path clip-rule="nonzero" d="M 73.441406 114 L 453 114 L 453 116 L 73.441406 116 Z M 73.441406 114 "/>
</clipPath>
<clipPath id="clip-4">
<path clip-rule="nonzero" d="M 87 75.601562 L 88 75.601562 L 88 248.402344 L 87 248.402344 Z M 87 75.601562 "/>
</clipPath>
<clipPath id="clip-5">
<path clip-rule="nonzero" d="M 143 75.601562 L 145 75.601562 L 145 248.402344 L 143 248.402344 Z M 143 75.601562 "/>
</clipPath>
<clipPath id="clip-6">
<path clip-rule="nonzero" d="M 200 75.601562 L 202 75.601562 L 202 248.402344 L 200 248.402344 Z M 200 75.601562 "/>
</clipPath>
<clipPath id="clip-7">
<path clip-rule="nonzero" d="M 257 75.601562 L 258 75.601562 L 258 248.402344 L 257 248.402344 Z M 257 75.601562 "/>
</clipPath>
<clipPath id="clip-8">
<path clip-rule="nonzero" d="M 313 75.601562 L 315 75.601562 L 315 248.402344 L 313 248.402344 Z M 313 75.601562 "/>
</clipPath>
<clipPath id="clip-9">
<path clip-rule="nonzero" d="M 370 75.601562 L 372 75.601562 L 372 248.402344 L 370 248.402344 Z M 370 75.601562 "/>
</clipPath>
<clipPath id="clip-10">
<path clip-rule="nonzero" d="M 427 75.601562 L 428 75.601562 L 428 248.402344 L 427 248.402344 Z M 427 75.601562 "/>
</clipPath>
<clipPath id="clip-11">
<path clip-rule="nonzero" d="M 86 75.601562 L 440 75.601562 L 440 243 L 86 243 Z M 86 75.601562 "/>
</clipPath>
</defs>
<rect x="-52.5" y="-32.4" width="630" height="388.8" fill="rgb(100%, 100%, 100%)" fill-opacity="1"/>
<path fill="none" stroke-width="0.75" stroke-linecap="round" stroke-linejoin="round" stroke="rgb(0%, 0%, 0%)" stroke-opacity="1" stroke-miterlimit="10" d="M 87.496094 248.398438 L 427.605469 248.398438 "/>
<path fill="none" stroke-width="0.75" stroke-linecap="round" stroke-linejoin="round" stroke="rgb(0%, 0%, 0%)" stroke-opacity="1" stroke-miterlimit="10" d="M 87.496094 248.398438 L 87.496094 252.71875 "/>
<path fill="none" stroke-width="0.75" stroke-linecap="round" stroke-linejoin="round" stroke="rgb(0%, 0%, 0%)" stroke-opacity="1" stroke-miterlimit="10" d="M 144.183594 248.398438 L 144.183594 252.71875 "/>
<path fill="none" stroke-width="0.75" stroke-linecap="round" stroke-linejoin="round" stroke="rgb(0%, 0%, 0%)" stroke-opacity="1" stroke-miterlimit="10" d="M 200.867188 248.398438 L 200.867188 252.71875 "/>
<path fill="none" stroke-width="0.75" stroke-linecap="round" stroke-linejoin="round" stroke="rgb(0%, 0%, 0%)" stroke-opacity="1" stroke-miterlimit="10" d="M 257.550781 248.398438 L 257.550781 252.71875 "/>
<path fill="none" stroke-width="0.75" stroke-linecap="round" stroke-linejoin="round" stroke="rgb(0%, 0%, 0%)" stroke-opacity="1" stroke-miterlimit="10" d="M 314.234375 248.398438 L 314.234375 252.71875 "/>
<path fill="none" stroke-width="0.75" stroke-linecap="round" stroke-linejoin="round" stroke="rgb(0%, 0%, 0%)" stroke-opacity="1" stroke-miterlimit="10" d="M 370.921875 248.398438 L 370.921875 252.71875 "/>
<path fill="none" stroke-width="0.75" stroke-linecap="round" stroke-linejoin="round" stroke="rgb(0%, 0%, 0%)" stroke-opacity="1" stroke-miterlimit="10" d="M 427.605469 248.398438 L 427.605469 252.71875 "/>
<g fill="rgb(49.803922%, 54.901961%, 55.294118%)" fill-opacity="1">
<use xlink:href="#glyph-0-0" x="82.496094" y="266.907227"/>
<use xlink:href="#glyph-0-1" x="86.496094" y="266.907227"/>
</g>
<g fill="rgb(49.803922%, 54.901961%, 55.294118%)" fill-opacity="1">
<use xlink:href="#glyph-0-0" x="139.183594" y="266.907227"/>
<use xlink:href="#glyph-0-2" x="143.183594" y="266.907227"/>
</g>
<g fill="rgb(49.803922%, 54.901961%, 55.294118%)" fill-opacity="1">
<use xlink:href="#glyph-0-0" x="195.867188" y="266.907227"/>
<use xlink:href="#glyph-0-3" x="199.867188" y="266.907227"/>
</g>
<g fill="rgb(49.803922%, 54.901961%, 55.294118%)" fill-opacity="1">
<use xlink:href="#glyph-0-4" x="254.550781" y="266.907227"/>
</g>
<g fill="rgb(49.803922%, 54.901961%, 55.294118%)" fill-opacity="1">
<use xlink:href="#glyph-0-3" x="311.234375" y="266.907227"/>
</g>
<g fill="rgb(49.803922%, 54.901961%, 55.294118%)" fill-opacity="1">
<use xlink:href="#glyph-0-2" x="367.921875" y="266.907227"/>
</g>
<g fill="rgb(49.803922%, 54.901961%, 55.294118%)" fill-opacity="1">
<use xlink:href="#glyph-0-1" x="424.605469" y="266.907227"/>
</g>
<path fill="none" stroke-width="0.75" stroke-linecap="round" stroke-linejoin="round" stroke="rgb(0%, 0%, 0%)" stroke-opacity="1" stroke-miterlimit="10" d="M 73.441406 242.425781 L 73.441406 115.257812 "/>
<path fill="none" stroke-width="0.75" stroke-linecap="round" stroke-linejoin="round" stroke="rgb(0%, 0%, 0%)" stroke-opacity="1" stroke-miterlimit="10" d="M 73.441406 242.425781 L 69.121094 242.425781 "/>
<path fill="none" stroke-width="0.75" stroke-linecap="round" stroke-linejoin="round" stroke="rgb(0%, 0%, 0%)" stroke-opacity="1" stroke-miterlimit="10" d="M 73.441406 200.035156 L 69.121094 200.035156 "/>
<path fill="none" stroke-width="0.75" stroke-linecap="round" stroke-linejoin="round" stroke="rgb(0%, 0%, 0%)" stroke-opacity="1" stroke-miterlimit="10" d="M 73.441406 157.648438 L 69.121094 157.648438 "/>
<path fill="none" stroke-width="0.75" stroke-linecap="round" stroke-linejoin="round" stroke="rgb(0%, 0%, 0%)" stroke-opacity="1" stroke-miterlimit="10" d="M 73.441406 115.257812 L 69.121094 115.257812 "/>
<g fill="rgb(49.803922%, 54.901961%, 55.294118%)" fill-opacity="1">
<use xlink:href="#glyph-1-0" x="63.145508" y="249.925781"/>
<use xlink:href="#glyph-1-1" x="63.145508" y="243.925781"/>
<use xlink:href="#glyph-1-0" x="63.145508" y="240.925781"/>
</g>
<g fill="rgb(49.803922%, 54.901961%, 55.294118%)" fill-opacity="1">
<use xlink:href="#glyph-1-0" x="63.145508" y="207.535156"/>
<use xlink:href="#glyph-1-1" x="63.145508" y="201.535156"/>
<use xlink:href="#glyph-1-2" x="63.145508" y="198.535156"/>
</g>
<g fill="rgb(49.803922%, 54.901961%, 55.294118%)" fill-opacity="1">
<use xlink:href="#glyph-1-0" x="63.145508" y="165.148438"/>
<use xlink:href="#glyph-1-1" x="63.145508" y="159.148438"/>
<use xlink:href="#glyph-1-3" x="63.145508" y="156.148438"/>
</g>
<g fill="rgb(49.803922%, 54.901961%, 55.294118%)" fill-opacity="1">
<use xlink:href="#glyph-1-0" x="63.145508" y="122.757812"/>
<use xlink:href="#glyph-1-1" x="63.145508" y="116.757812"/>
<use xlink:href="#glyph-1-4" x="63.145508" y="113.757812"/>
</g>
<g clip-path="url(#clip-0)">
<path fill="none" stroke-width="0.75" stroke-linecap="round" stroke-linejoin="round" stroke="rgb(89.803922%, 89.803922%, 89.803922%)" stroke-opacity="1" stroke-miterlimit="10" d="M 73.441406 242.425781 L 453 242.425781 "/>
</g>
<g clip-path="url(#clip-1)">
<path fill="none" stroke-width="0.75" stroke-linecap="round" stroke-linejoin="round" stroke="rgb(89.803922%, 89.803922%, 89.803922%)" stroke-opacity="1" stroke-miterlimit="10" d="M 73.441406 200.035156 L 453 200.035156 "/>
</g>
<g clip-path="url(#clip-2)">
<path fill="none" stroke-width="0.75" stroke-linecap="round" stroke-linejoin="round" stroke="rgb(89.803922%, 89.803922%, 89.803922%)" stroke-opacity="1" stroke-miterlimit="10" d="M 73.441406 157.648438 L 453 157.648438 "/>
</g>
<g clip-path="url(#clip-3)">
<path fill="none" stroke-width="0.75" stroke-linecap="round" stroke-linejoin="round" stroke="rgb(89.803922%, 89.803922%, 89.803922%)" stroke-opacity="1" stroke-miterlimit="10" d="M 73.441406 115.257812 L 453 115.257812 "/>
</g>
<g clip-path="url(#clip-4)">
<path fill="none" stroke-width="0.75" stroke-linecap="round" stroke-linejoin="round" stroke="rgb(89.803922%, 89.803922%, 89.803922%)" stroke-opacity="1" stroke-miterlimit="10" d="M 87.496094 248.398438 L 87.496094 75.601562 "/>
</g>
<g clip-path="url(#clip-5)">
<path fill="none" stroke-width="0.75" stroke-linecap="round" stroke-linejoin="round" stroke="rgb(89.803922%, 89.803922%, 89.803922%)" stroke-opacity="1" stroke-miterlimit="10" d="M 144.183594 248.398438 L 144.183594 75.601562 "/>
</g>
<g clip-path="url(#clip-6)">
<path fill="none" stroke-width="0.75" stroke-linecap="round" stroke-linejoin="round" stroke="rgb(89.803922%, 89.803922%, 89.803922%)" stroke-opacity="1" stroke-miterlimit="10" d="M 200.867188 248.398438 L 200.867188 75.601562 "/>
</g>
<g clip-path="url(#clip-7)">
<path fill="none" stroke-width="0.75" stroke-linecap="round" stroke-linejoin="round" stroke="rgb(89.803922%, 89.803922%, 89.803922%)" stroke-opacity="1" stroke-miterlimit="10" d="M 257.550781 248.398438 L 257.550781 75.601562 "/>
</g>
<g clip-path="url(#clip-8)">
<path fill="none" stroke-width="0.75" stroke-linecap="round" stroke-linejoin="round" stroke="rgb(89.803922%, 89.803922%, 89.803922%)" stroke-opacity="1" stroke-miterlimit="10" d="M 314.234375 248.398438 L 314.234375 75.601562 "/>
</g>
<g clip-path="url(#clip-9)">
<path fill="none" stroke-width="0.75" stroke-linecap="round" stroke-linejoin="round" stroke="rgb(89.803922%, 89.803922%, 89.803922%)" stroke-opacity="1" stroke-miterlimit="10" d="M 370.921875 248.398438 L 370.921875 75.601562 "/>
</g>
<g clip-path="url(#clip-10)">
<path fill="none" stroke-width="0.75" stroke-linecap="round" stroke-linejoin="round" stroke="rgb(89.803922%, 89.803922%, 89.803922%)" stroke-opacity="1" stroke-miterlimit="10" d="M 427.605469 248.398438 L 427.605469 75.601562 "/>
</g>
<path fill-rule="nonzero" fill="rgb(88.235294%, 41.568627%, 52.54902%)" fill-opacity="1" stroke-width="0.75" stroke-linecap="round" stroke-linejoin="round" stroke="rgb(100%, 100%, 100%)" stroke-opacity="1" stroke-miterlimit="10" d="M 87.496094 242.425781 L 98.832031 242.425781 L 98.832031 241.152344 L 87.496094 241.152344 Z M 87.496094 242.425781 "/>
<path fill-rule="nonzero" fill="rgb(88.235294%, 41.568627%, 52.54902%)" fill-opacity="1" stroke-width="0.75" stroke-linecap="round" stroke-linejoin="round" stroke="rgb(100%, 100%, 100%)" stroke-opacity="1" stroke-miterlimit="10" d="M 98.835938 242.425781 L 110.171875 242.425781 L 110.171875 236.492188 L 98.835938 236.492188 Z M 98.835938 242.425781 "/>
<path fill-rule="nonzero" fill="rgb(88.235294%, 41.568627%, 52.54902%)" fill-opacity="1" stroke-width="0.75" stroke-linecap="round" stroke-linejoin="round" stroke="rgb(100%, 100%, 100%)" stroke-opacity="1" stroke-miterlimit="10" d="M 110.171875 242.425781 L 121.507812 242.425781 L 121.507812 234.796875 L 110.171875 234.796875 Z M 110.171875 242.425781 "/>
<path fill-rule="nonzero" fill="rgb(88.235294%, 41.568627%, 52.54902%)" fill-opacity="1" stroke-width="0.75" stroke-linecap="round" stroke-linejoin="round" stroke="rgb(100%, 100%, 100%)" stroke-opacity="1" stroke-miterlimit="10" d="M 121.507812 242.425781 L 132.84375 242.425781 L 132.84375 236.28125 L 121.507812 236.28125 Z M 121.507812 242.425781 "/>
<path fill-rule="nonzero" fill="rgb(88.235294%, 41.568627%, 52.54902%)" fill-opacity="1" stroke-width="0.75" stroke-linecap="round" stroke-linejoin="round" stroke="rgb(100%, 100%, 100%)" stroke-opacity="1" stroke-miterlimit="10" d="M 132.84375 242.425781 L 144.179688 242.425781 L 144.179688 233.949219 L 132.84375 233.949219 Z M 132.84375 242.425781 "/>
<path fill-rule="nonzero" fill="rgb(88.235294%, 41.568627%, 52.54902%)" fill-opacity="1" stroke-width="0.75" stroke-linecap="round" stroke-linejoin="round" stroke="rgb(100%, 100%, 100%)" stroke-opacity="1" stroke-miterlimit="10" d="M 144.183594 242.425781 L 155.519531 242.425781 L 155.519531 224.414062 L 144.183594 224.414062 Z M 144.183594 242.425781 "/>
<path fill-rule="nonzero" fill="rgb(88.235294%, 41.568627%, 52.54902%)" fill-opacity="1" stroke-width="0.75" stroke-linecap="round" stroke-linejoin="round" stroke="rgb(100%, 100%, 100%)" stroke-opacity="1" stroke-miterlimit="10" d="M 155.519531 242.425781 L 166.855469 242.425781 L 166.855469 206.1875 L 155.519531 206.1875 Z M 155.519531 242.425781 "/>
<path fill-rule="nonzero" fill="rgb(88.235294%, 41.568627%, 52.54902%)" fill-opacity="1" stroke-width="0.75" stroke-linecap="round" stroke-linejoin="round" stroke="rgb(100%, 100%, 100%)" stroke-opacity="1" stroke-miterlimit="10" d="M 166.855469 242.425781 L 178.191406 242.425781 L 178.191406 175.246094 L 166.855469 175.246094 Z M 166.855469 242.425781 "/>
<path fill-rule="nonzero" fill="rgb(88.235294%, 41.568627%, 52.54902%)" fill-opacity="1" stroke-width="0.75" stroke-linecap="round" stroke-linejoin="round" stroke="rgb(100%, 100%, 100%)" stroke-opacity="1" stroke-miterlimit="10" d="M 178.191406 242.425781 L 189.527344 242.425781 L 189.527344 155.75 L 178.191406 155.75 Z M 178.191406 242.425781 "/>
<path fill-rule="nonzero" fill="rgb(88.235294%, 41.568627%, 52.54902%)" fill-opacity="1" stroke-width="0.75" stroke-linecap="round" stroke-linejoin="round" stroke="rgb(100%, 100%, 100%)" stroke-opacity="1" stroke-miterlimit="10" d="M 189.53125 242.425781 L 200.867188 242.425781 L 200.867188 151.9375 L 189.53125 151.9375 Z M 189.53125 242.425781 "/>
<path fill-rule="nonzero" fill="rgb(88.235294%, 41.568627%, 52.54902%)" fill-opacity="1" stroke-width="0.75" stroke-linecap="round" stroke-linejoin="round" stroke="rgb(100%, 100%, 100%)" stroke-opacity="1" stroke-miterlimit="10" d="M 200.867188 242.425781 L 212.203125 242.425781 L 212.203125 130.320312 L 200.867188 130.320312 Z M 200.867188 242.425781 "/>
<path fill-rule="nonzero" fill="rgb(88.235294%, 41.568627%, 52.54902%)" fill-opacity="1" stroke-width="0.75" stroke-linecap="round" stroke-linejoin="round" stroke="rgb(100%, 100%, 100%)" stroke-opacity="1" stroke-miterlimit="10" d="M 212.203125 242.425781 L 223.539062 242.425781 L 223.539062 125.65625 L 212.203125 125.65625 Z M 212.203125 242.425781 "/>
<path fill-rule="nonzero" fill="rgb(88.235294%, 41.568627%, 52.54902%)" fill-opacity="1" stroke-width="0.75" stroke-linecap="round" stroke-linejoin="round" stroke="rgb(100%, 100%, 100%)" stroke-opacity="1" stroke-miterlimit="10" d="M 223.539062 242.425781 L 234.875 242.425781 L 234.875 131.804688 L 223.539062 131.804688 Z M 223.539062 242.425781 "/>
<path fill-rule="nonzero" fill="rgb(88.235294%, 41.568627%, 52.54902%)" fill-opacity="1" stroke-width="0.75" stroke-linecap="round" stroke-linejoin="round" stroke="rgb(100%, 100%, 100%)" stroke-opacity="1" stroke-miterlimit="10" d="M 234.878906 242.425781 L 246.214844 242.425781 L 246.214844 103.195312 L 234.878906 103.195312 Z M 234.878906 242.425781 "/>
<path fill-rule="nonzero" fill="rgb(88.235294%, 41.568627%, 52.54902%)" fill-opacity="1" stroke-width="0.75" stroke-linecap="round" stroke-linejoin="round" stroke="rgb(100%, 100%, 100%)" stroke-opacity="1" stroke-miterlimit="10" d="M 246.214844 242.425781 L 257.550781 242.425781 L 257.550781 105.523438 L 246.214844 105.523438 Z M 246.214844 242.425781 "/>
<path fill-rule="nonzero" fill="rgb(88.235294%, 41.568627%, 52.54902%)" fill-opacity="1" stroke-width="0.75" stroke-linecap="round" stroke-linejoin="round" stroke="rgb(100%, 100%, 100%)" stroke-opacity="1" stroke-miterlimit="10" d="M 257.550781 242.425781 L 268.886719 242.425781 L 268.886719 82.851562 L 257.550781 82.851562 Z M 257.550781 242.425781 "/>
<path fill-rule="nonzero" fill="rgb(88.235294%, 41.568627%, 52.54902%)" fill-opacity="1" stroke-width="0.75" stroke-linecap="round" stroke-linejoin="round" stroke="rgb(100%, 100%, 100%)" stroke-opacity="1" stroke-miterlimit="10" d="M 268.886719 242.425781 L 280.222656 242.425781 L 280.222656 83.910156 L 268.886719 83.910156 Z M 268.886719 242.425781 "/>
<path fill-rule="nonzero" fill="rgb(88.235294%, 41.568627%, 52.54902%)" fill-opacity="1" stroke-width="0.75" stroke-linecap="round" stroke-linejoin="round" stroke="rgb(100%, 100%, 100%)" stroke-opacity="1" stroke-miterlimit="10" d="M 280.226562 242.425781 L 291.5625 242.425781 L 291.5625 102.558594 L 280.226562 102.558594 Z M 280.226562 242.425781 "/>
<path fill-rule="nonzero" fill="rgb(88.235294%, 41.568627%, 52.54902%)" fill-opacity="1" stroke-width="0.75" stroke-linecap="round" stroke-linejoin="round" stroke="rgb(100%, 100%, 100%)" stroke-opacity="1" stroke-miterlimit="10" d="M 291.5625 242.425781 L 302.898438 242.425781 L 302.898438 82 L 291.5625 82 Z M 291.5625 242.425781 "/>
<path fill-rule="nonzero" fill="rgb(88.235294%, 41.568627%, 52.54902%)" fill-opacity="1" stroke-width="0.75" stroke-linecap="round" stroke-linejoin="round" stroke="rgb(100%, 100%, 100%)" stroke-opacity="1" stroke-miterlimit="10" d="M 302.898438 242.425781 L 314.234375 242.425781 L 314.234375 86.027344 L 302.898438 86.027344 Z M 302.898438 242.425781 "/>
<path fill-rule="nonzero" fill="rgb(88.235294%, 41.568627%, 52.54902%)" fill-opacity="1" stroke-width="0.75" stroke-linecap="round" stroke-linejoin="round" stroke="rgb(100%, 100%, 100%)" stroke-opacity="1" stroke-miterlimit="10" d="M 314.234375 242.425781 L 325.570312 242.425781 L 325.570312 112.09375 L 314.234375 112.09375 Z M 314.234375 242.425781 "/>
<path fill-rule="nonzero" fill="rgb(88.235294%, 41.568627%, 52.54902%)" fill-opacity="1" stroke-width="0.75" stroke-linecap="round" stroke-linejoin="round" stroke="rgb(100%, 100%, 100%)" stroke-opacity="1" stroke-miterlimit="10" d="M 325.574219 242.425781 L 336.910156 242.425781 L 336.910156 153.207031 L 325.574219 153.207031 Z M 325.574219 242.425781 "/>
<path fill-rule="nonzero" fill="rgb(88.235294%, 41.568627%, 52.54902%)" fill-opacity="1" stroke-width="0.75" stroke-linecap="round" stroke-linejoin="round" stroke="rgb(100%, 100%, 100%)" stroke-opacity="1" stroke-miterlimit="10" d="M 336.910156 242.425781 L 348.246094 242.425781 L 348.246094 183.300781 L 336.910156 183.300781 Z M 336.910156 242.425781 "/>
<path fill-rule="nonzero" fill="rgb(88.235294%, 41.568627%, 52.54902%)" fill-opacity="1" stroke-width="0.75" stroke-linecap="round" stroke-linejoin="round" stroke="rgb(100%, 100%, 100%)" stroke-opacity="1" stroke-miterlimit="10" d="M 348.246094 242.425781 L 359.582031 242.425781 L 359.582031 199.617188 L 348.246094 199.617188 Z M 348.246094 242.425781 "/>
<path fill-rule="nonzero" fill="rgb(88.235294%, 41.568627%, 52.54902%)" fill-opacity="1" stroke-width="0.75" stroke-linecap="round" stroke-linejoin="round" stroke="rgb(100%, 100%, 100%)" stroke-opacity="1" stroke-miterlimit="10" d="M 359.582031 242.425781 L 370.917969 242.425781 L 370.917969 213.605469 L 359.582031 213.605469 Z M 359.582031 242.425781 "/>
<path fill-rule="nonzero" fill="rgb(88.235294%, 41.568627%, 52.54902%)" fill-opacity="1" stroke-width="0.75" stroke-linecap="round" stroke-linejoin="round" stroke="rgb(100%, 100%, 100%)" stroke-opacity="1" stroke-miterlimit="10" d="M 370.921875 242.425781 L 382.257812 242.425781 L 382.257812 225.683594 L 370.921875 225.683594 Z M 370.921875 242.425781 "/>
<path fill-rule="nonzero" fill="rgb(88.235294%, 41.568627%, 52.54902%)" fill-opacity="1" stroke-width="0.75" stroke-linecap="round" stroke-linejoin="round" stroke="rgb(100%, 100%, 100%)" stroke-opacity="1" stroke-miterlimit="10" d="M 382.257812 242.425781 L 393.59375 242.425781 L 393.59375 226.957031 L 382.257812 226.957031 Z M 382.257812 242.425781 "/>
<path fill-rule="nonzero" fill="rgb(88.235294%, 41.568627%, 52.54902%)" fill-opacity="1" stroke-width="0.75" stroke-linecap="round" stroke-linejoin="round" stroke="rgb(100%, 100%, 100%)" stroke-opacity="1" stroke-miterlimit="10" d="M 393.59375 242.425781 L 404.929688 242.425781 L 404.929688 229.074219 L 393.59375 229.074219 Z M 393.59375 242.425781 "/>
<path fill-rule="nonzero" fill="rgb(88.235294%, 41.568627%, 52.54902%)" fill-opacity="1" stroke-width="0.75" stroke-linecap="round" stroke-linejoin="round" stroke="rgb(100%, 100%, 100%)" stroke-opacity="1" stroke-miterlimit="10" d="M 404.929688 242.425781 L 416.265625 242.425781 L 416.265625 238.824219 L 404.929688 238.824219 Z M 404.929688 242.425781 "/>
<path fill-rule="nonzero" fill="rgb(88.235294%, 41.568627%, 52.54902%)" fill-opacity="1" stroke-width="0.75" stroke-linecap="round" stroke-linejoin="round" stroke="rgb(100%, 100%, 100%)" stroke-opacity="1" stroke-miterlimit="10" d="M 416.269531 242.425781 L 427.605469 242.425781 L 427.605469 241.367188 L 416.269531 241.367188 Z M 416.269531 242.425781 "/>
<path fill-rule="nonzero" fill="rgb(88.235294%, 41.568627%, 52.54902%)" fill-opacity="1" stroke-width="0.75" stroke-linecap="round" stroke-linejoin="round" stroke="rgb(100%, 100%, 100%)" stroke-opacity="1" stroke-miterlimit="10" d="M 427.605469 242.425781 L 438.941406 242.425781 L 438.941406 242 L 427.605469 242 Z M 427.605469 242.425781 "/>
<g clip-path="url(#clip-11)">
<path fill="none" stroke-width="1.5" stroke-linecap="round" stroke-linejoin="round" stroke="rgb(30.196078%, 30.196078%, 30.196078%)" stroke-opacity="1" stroke-miterlimit="10" d="M 87.496094 240.546875 L 87.847656 240.511719 L 88.203125 240.472656 L 88.90625 240.402344 L 90.664062 240.207031 L 91.015625 240.164062 L 91.367188 240.125 L 92.421875 239.996094 L 92.773438 239.949219 L 93.125 239.90625 L 93.476562 239.859375 L 93.832031 239.8125 L 94.886719 239.671875 L 96.292969 239.46875 L 96.644531 239.414062 L 96.996094 239.363281 L 97.699219 239.253906 L 98.050781 239.195312 L 98.402344 239.140625 L 99.457031 238.964844 L 99.8125 238.902344 L 100.164062 238.84375 L 100.867188 238.71875 L 101.570312 238.585938 L 101.921875 238.523438 L 102.273438 238.453125 L 102.625 238.386719 L 104.03125 238.105469 L 105.085938 237.882812 L 105.4375 237.804688 L 105.792969 237.726562 L 106.496094 237.570312 L 107.550781 237.324219 L 108.957031 236.980469 L 109.660156 236.800781 L 111.066406 236.425781 L 111.421875 236.328125 L 111.773438 236.230469 L 112.125 236.128906 L 112.476562 236.03125 L 112.828125 235.925781 L 113.179688 235.824219 L 113.882812 235.613281 L 114.9375 235.285156 L 115.992188 234.945312 L 116.34375 234.828125 L 116.695312 234.707031 L 117.046875 234.589844 L 117.402344 234.46875 L 118.457031 234.09375 L 119.511719 233.707031 L 120.214844 233.441406 L 120.566406 233.304688 L 120.917969 233.164062 L 121.269531 233.027344 L 121.621094 232.886719 L 122.675781 232.453125 L 123.027344 232.304688 L 123.382812 232.152344 L 124.085938 231.847656 L 124.789062 231.535156 L 125.492188 231.214844 L 126.195312 230.886719 L 126.898438 230.550781 L 127.601562 230.207031 L 128.304688 229.855469 L 129.007812 229.496094 L 129.363281 229.3125 L 129.714844 229.128906 L 130.066406 228.941406 L 131.121094 228.367188 L 131.472656 228.171875 L 132.175781 227.773438 L 132.878906 227.367188 L 133.582031 226.953125 L 133.933594 226.738281 L 134.285156 226.527344 L 134.636719 226.3125 L 134.992188 226.09375 L 136.046875 225.425781 L 136.398438 225.199219 L 136.75 224.96875 L 137.804688 224.265625 L 138.15625 224.027344 L 138.507812 223.785156 L 139.210938 223.292969 L 139.914062 222.792969 L 140.265625 222.539062 L 140.617188 222.28125 L 140.972656 222.023438 L 141.324219 221.761719 L 142.027344 221.230469 L 142.378906 220.960938 L 143.082031 220.414062 L 143.433594 220.136719 L 144.136719 219.574219 L 144.488281 219.289062 L 145.191406 218.710938 L 145.542969 218.417969 L 146.246094 217.824219 L 146.597656 217.523438 L 146.953125 217.21875 L 147.304688 216.914062 L 147.65625 216.601562 L 148.007812 216.292969 L 148.710938 215.660156 L 149.0625 215.339844 L 149.765625 214.691406 L 150.117188 214.359375 L 150.46875 214.03125 L 151.171875 213.359375 L 151.523438 213.019531 L 151.875 212.675781 L 152.226562 212.328125 L 152.582031 211.980469 L 153.285156 211.277344 L 153.988281 210.558594 L 154.691406 209.832031 L 155.394531 209.089844 L 156.097656 208.339844 L 156.449219 207.960938 L 156.800781 207.578125 L 157.152344 207.191406 L 157.855469 206.410156 L 158.207031 206.015625 L 158.5625 205.617188 L 158.914062 205.21875 L 159.96875 204 L 160.671875 203.171875 L 161.023438 202.753906 L 161.726562 201.910156 L 162.078125 201.484375 L 162.429688 201.054688 L 163.132812 200.1875 L 163.484375 199.75 L 163.835938 199.308594 L 164.1875 198.863281 L 164.542969 198.417969 L 164.894531 197.96875 L 165.246094 197.515625 L 165.949219 196.601562 L 166.300781 196.140625 L 167.003906 195.210938 L 167.355469 194.742188 L 167.707031 194.269531 L 168.410156 193.316406 L 168.761719 192.835938 L 169.113281 192.351562 L 169.816406 191.375 L 170.167969 190.882812 L 170.523438 190.390625 L 170.875 189.894531 L 171.226562 189.394531 L 171.929688 188.386719 L 172.28125 187.878906 L 172.984375 186.855469 L 173.335938 186.335938 L 173.6875 185.820312 L 174.742188 184.25 L 175.796875 182.65625 L 176.152344 182.117188 L 176.855469 181.039062 L 177.207031 180.496094 L 177.910156 179.402344 L 178.261719 178.851562 L 178.964844 177.742188 L 179.667969 176.625 L 180.019531 176.0625 L 181.074219 174.363281 L 181.425781 173.789062 L 181.777344 173.21875 L 182.132812 172.644531 L 182.484375 172.066406 L 182.835938 171.484375 L 183.1875 170.90625 L 184.242188 169.148438 L 184.945312 167.96875 L 185.648438 166.78125 L 186.703125 164.988281 L 187.054688 164.386719 L 187.40625 163.78125 L 187.757812 163.179688 L 188.113281 162.570312 L 188.464844 161.964844 L 188.816406 161.355469 L 189.167969 160.742188 L 189.519531 160.132812 L 189.871094 159.519531 L 191.277344 157.050781 L 192.332031 155.1875 L 193.386719 153.3125 L 193.742188 152.6875 L 195.148438 150.171875 L 195.5 149.539062 L 195.851562 148.910156 L 197.257812 146.378906 L 197.609375 145.742188 L 197.960938 145.109375 L 198.3125 144.472656 L 198.664062 143.839844 L 199.367188 142.566406 L 199.722656 141.929688 L 201.832031 138.109375 L 202.183594 137.476562 L 203.238281 135.566406 L 203.589844 134.933594 L 203.941406 134.296875 L 204.292969 133.664062 L 204.644531 133.027344 L 205.347656 131.761719 L 205.703125 131.128906 L 206.054688 130.5 L 206.40625 129.867188 L 207.460938 127.980469 L 207.8125 127.355469 L 208.164062 126.726562 L 208.515625 126.101562 L 208.867188 125.480469 L 209.21875 124.855469 L 209.921875 123.613281 L 210.976562 121.761719 L 211.328125 121.148438 L 211.683594 120.535156 L 212.035156 119.921875 L 212.386719 119.3125 L 213.441406 117.496094 L 214.144531 116.292969 L 214.847656 115.097656 L 215.550781 113.910156 L 215.902344 113.320312 L 216.605469 112.148438 L 216.957031 111.566406 L 217.3125 110.984375 L 217.664062 110.40625 L 218.015625 109.832031 L 218.71875 108.691406 L 219.421875 107.558594 L 219.773438 106.996094 L 220.125 106.4375 L 220.828125 105.328125 L 221.53125 104.234375 L 222.234375 103.148438 L 222.9375 102.078125 L 223.292969 101.550781 L 223.644531 101.023438 L 223.996094 100.5 L 224.347656 99.980469 L 224.699219 99.464844 L 225.402344 98.441406 L 225.753906 97.9375 L 226.105469 97.4375 L 226.808594 96.445312 L 227.160156 95.957031 L 227.511719 95.472656 L 228.214844 94.511719 L 228.566406 94.039062 L 228.917969 93.570312 L 229.273438 93.105469 L 229.976562 92.191406 L 230.328125 91.738281 L 230.679688 91.292969 L 231.03125 90.851562 L 231.382812 90.414062 L 231.734375 89.980469 L 232.085938 89.550781 L 232.789062 88.707031 L 233.140625 88.292969 L 233.492188 87.882812 L 234.195312 87.078125 L 234.546875 86.683594 L 234.902344 86.296875 L 235.253906 85.910156 L 235.605469 85.53125 L 235.957031 85.15625 L 236.660156 84.421875 L 237.363281 83.710938 L 237.714844 83.363281 L 238.066406 83.019531 L 238.417969 82.683594 L 238.769531 82.351562 L 239.121094 82.023438 L 239.472656 81.703125 L 239.824219 81.386719 L 240.175781 81.078125 L 240.527344 80.773438 L 240.882812 80.476562 L 241.234375 80.183594 L 241.585938 79.894531 L 241.9375 79.613281 L 242.289062 79.339844 L 242.640625 79.070312 L 242.992188 78.804688 L 243.34375 78.546875 L 243.695312 78.296875 L 244.046875 78.050781 L 244.398438 77.808594 L 245.101562 77.347656 L 245.453125 77.125 L 245.804688 76.910156 L 246.15625 76.699219 L 246.507812 76.496094 L 246.863281 76.300781 L 247.214844 76.109375 L 247.566406 75.921875 L 247.917969 75.742188 L 248.269531 75.570312 L 248.621094 75.40625 L 248.972656 75.246094 L 249.324219 75.089844 L 249.675781 74.941406 L 250.027344 74.800781 L 250.378906 74.667969 L 250.730469 74.539062 L 251.082031 74.417969 L 251.433594 74.300781 L 251.785156 74.191406 L 252.136719 74.089844 L 252.488281 73.992188 L 252.84375 73.902344 L 253.195312 73.816406 L 253.898438 73.667969 L 254.25 73.605469 L 254.601562 73.546875 L 254.953125 73.496094 L 255.304688 73.453125 L 255.65625 73.414062 L 256.007812 73.382812 L 256.359375 73.355469 L 256.710938 73.335938 L 257.0625 73.324219 L 257.414062 73.320312 L 257.765625 73.320312 L 258.117188 73.328125 L 258.472656 73.339844 L 258.824219 73.359375 L 259.175781 73.386719 L 259.527344 73.421875 L 259.878906 73.460938 L 260.230469 73.507812 L 260.582031 73.558594 L 261.285156 73.683594 L 261.636719 73.757812 L 261.988281 73.835938 L 262.339844 73.921875 L 262.691406 74.011719 L 263.042969 74.109375 L 263.394531 74.214844 L 263.746094 74.324219 L 264.097656 74.441406 L 264.453125 74.566406 L 264.804688 74.695312 L 265.15625 74.832031 L 265.507812 74.976562 L 265.859375 75.125 L 266.210938 75.28125 L 266.5625 75.441406 L 266.914062 75.609375 L 267.265625 75.785156 L 267.617188 75.964844 L 267.96875 76.152344 L 268.320312 76.34375 L 268.671875 76.542969 L 269.023438 76.746094 L 269.375 76.957031 L 269.726562 77.175781 L 270.078125 77.398438 L 270.433594 77.628906 L 270.785156 77.863281 L 271.136719 78.105469 L 271.488281 78.351562 L 271.839844 78.605469 L 272.542969 79.128906 L 272.894531 79.402344 L 273.246094 79.679688 L 273.597656 79.960938 L 273.949219 80.25 L 274.300781 80.542969 L 274.652344 80.84375 L 275.003906 81.148438 L 275.355469 81.457031 L 275.707031 81.777344 L 276.0625 82.097656 L 276.414062 82.425781 L 276.765625 82.757812 L 277.117188 83.097656 L 277.46875 83.441406 L 277.820312 83.789062 L 278.171875 84.144531 L 278.523438 84.503906 L 278.875 84.871094 L 279.226562 85.242188 L 279.578125 85.617188 L 279.929688 85.996094 L 280.28125 86.382812 L 280.632812 86.773438 L 280.984375 87.167969 L 281.335938 87.570312 L 281.6875 87.976562 L 282.042969 88.386719 L 282.394531 88.800781 L 282.746094 89.222656 L 283.097656 89.648438 L 283.449219 90.078125 L 283.800781 90.511719 L 284.152344 90.949219 L 284.855469 91.839844 L 285.207031 92.292969 L 285.558594 92.75 L 285.910156 93.210938 L 286.261719 93.675781 L 286.964844 94.621094 L 287.316406 95.097656 L 287.667969 95.582031 L 288.023438 96.066406 L 288.726562 97.050781 L 289.429688 98.050781 L 290.132812 99.066406 L 290.835938 100.097656 L 291.1875 100.617188 L 291.539062 101.140625 L 291.890625 101.667969 L 292.242188 102.199219 L 292.59375 102.734375 L 293.296875 103.8125 L 293.648438 104.355469 L 294.003906 104.902344 L 294.355469 105.453125 L 295.058594 106.5625 L 296.113281 108.25 L 297.167969 109.960938 L 297.871094 111.117188 L 298.574219 112.28125 L 299.277344 113.453125 L 299.632812 114.046875 L 299.984375 114.636719 L 300.335938 115.234375 L 300.6875 115.828125 L 301.039062 116.429688 L 301.390625 117.027344 L 302.445312 118.84375 L 303.5 120.671875 L 303.851562 121.285156 L 305.257812 123.753906 L 305.613281 124.375 L 305.964844 124.996094 L 307.371094 127.496094 L 307.722656 128.125 L 308.074219 128.75 L 308.425781 129.378906 L 308.777344 130.011719 L 309.128906 130.640625 L 310.886719 133.804688 L 311.238281 134.441406 L 311.59375 135.074219 L 312.648438 136.984375 L 313 137.617188 L 316.164062 143.347656 L 316.515625 143.980469 L 316.867188 144.617188 L 317.222656 145.253906 L 317.925781 146.519531 L 318.277344 147.15625 L 318.980469 148.421875 L 319.332031 149.050781 L 319.683594 149.683594 L 320.035156 150.3125 L 320.386719 150.945312 L 320.738281 151.574219 L 321.089844 152.199219 L 321.441406 152.828125 L 322.847656 155.328125 L 323.203125 155.949219 L 323.90625 157.191406 L 324.960938 159.042969 L 326.015625 160.882812 L 326.71875 162.101562 L 327.070312 162.707031 L 327.421875 163.316406 L 327.773438 163.917969 L 328.125 164.523438 L 328.476562 165.121094 L 328.828125 165.722656 L 329.183594 166.320312 L 329.535156 166.917969 L 329.886719 167.511719 L 330.941406 169.28125 L 331.644531 170.453125 L 332.347656 171.617188 L 333.050781 172.773438 L 333.753906 173.921875 L 334.105469 174.492188 L 334.808594 175.625 L 335.164062 176.1875 L 335.515625 176.75 L 336.21875 177.867188 L 336.921875 178.976562 L 337.273438 179.523438 L 337.625 180.074219 L 338.679688 181.703125 L 339.03125 182.238281 L 339.382812 182.777344 L 340.085938 183.839844 L 340.4375 184.367188 L 340.792969 184.894531 L 341.144531 185.417969 L 341.496094 185.9375 L 342.199219 186.96875 L 342.902344 187.992188 L 343.253906 188.5 L 343.957031 189.507812 L 344.308594 190.003906 L 344.660156 190.503906 L 345.363281 191.488281 L 345.714844 191.976562 L 346.417969 192.945312 L 346.773438 193.421875 L 347.125 193.902344 L 347.828125 194.847656 L 348.179688 195.316406 L 348.882812 196.246094 L 349.234375 196.707031 L 349.585938 197.164062 L 350.289062 198.070312 L 350.640625 198.519531 L 350.992188 198.964844 L 351.695312 199.847656 L 352.046875 200.285156 L 352.398438 200.71875 L 352.753906 201.152344 L 353.105469 201.582031 L 353.457031 202.007812 L 353.808594 202.429688 L 354.511719 203.265625 L 354.863281 203.679688 L 355.566406 204.5 L 355.917969 204.90625 L 356.269531 205.308594 L 356.972656 206.105469 L 357.324219 206.5 L 357.675781 206.890625 L 358.027344 207.277344 L 358.382812 207.664062 L 358.734375 208.046875 L 359.085938 208.425781 L 359.789062 209.175781 L 360.140625 209.546875 L 360.492188 209.914062 L 361.195312 210.640625 L 361.546875 211 L 362.25 211.710938 L 363.304688 212.753906 L 364.007812 213.433594 L 364.363281 213.769531 L 364.714844 214.105469 L 365.769531 215.089844 L 366.472656 215.730469 L 367.175781 216.363281 L 368.230469 217.289062 L 369.285156 218.191406 L 369.988281 218.777344 L 370.34375 219.066406 L 370.695312 219.355469 L 371.046875 219.636719 L 371.398438 219.921875 L 372.101562 220.476562 L 372.453125 220.75 L 373.15625 221.289062 L 373.859375 221.820312 L 374.210938 222.082031 L 374.914062 222.597656 L 375.265625 222.847656 L 375.617188 223.101562 L 375.96875 223.347656 L 376.324219 223.59375 L 376.675781 223.839844 L 377.027344 224.078125 L 377.378906 224.320312 L 378.082031 224.789062 L 378.785156 225.25 L 379.136719 225.476562 L 379.839844 225.921875 L 380.542969 226.359375 L 381.246094 226.789062 L 381.597656 227 L 381.953125 227.207031 L 382.304688 227.414062 L 383.007812 227.820312 L 383.359375 228.019531 L 384.414062 228.605469 L 384.765625 228.792969 L 385.117188 228.984375 L 385.46875 229.171875 L 386.171875 229.539062 L 386.523438 229.71875 L 386.875 229.894531 L 387.226562 230.074219 L 387.578125 230.246094 L 387.933594 230.417969 L 388.285156 230.589844 L 388.988281 230.925781 L 389.339844 231.089844 L 389.691406 231.25 L 390.042969 231.414062 L 391.097656 231.882812 L 391.800781 232.1875 L 392.503906 232.484375 L 393.558594 232.917969 L 393.914062 233.058594 L 394.265625 233.195312 L 394.617188 233.335938 L 394.96875 233.46875 L 395.320312 233.605469 L 395.671875 233.734375 L 396.023438 233.867188 L 396.375 233.996094 L 396.726562 234.121094 L 397.078125 234.25 L 397.429688 234.371094 L 397.78125 234.496094 L 398.132812 234.617188 L 399.1875 234.96875 L 399.542969 235.085938 L 399.894531 235.199219 L 400.246094 235.308594 L 400.597656 235.421875 L 400.949219 235.527344 L 401.300781 235.636719 L 402.003906 235.847656 L 402.355469 235.949219 L 402.707031 236.054688 L 403.058594 236.152344 L 403.410156 236.253906 L 403.761719 236.351562 L 404.113281 236.445312 L 404.464844 236.542969 L 405.167969 236.730469 L 405.523438 236.820312 L 406.226562 237 L 407.632812 237.34375 L 408.6875 237.589844 L 409.742188 237.824219 L 411.148438 238.121094 L 411.503906 238.191406 L 411.855469 238.265625 L 412.207031 238.332031 L 412.558594 238.402344 L 413.964844 238.667969 L 415.371094 238.917969 L 416.777344 239.152344 L 417.128906 239.207031 L 417.484375 239.265625 L 418.1875 239.375 L 418.539062 239.425781 L 418.890625 239.480469 L 419.945312 239.632812 L 420.296875 239.679688 L 420.648438 239.730469 L 421.703125 239.871094 L 422.054688 239.914062 L 422.40625 239.960938 L 422.757812 240.003906 L 423.113281 240.046875 L 424.167969 240.175781 L 426.277344 240.410156 L 426.980469 240.480469 L 427.332031 240.519531 L 427.683594 240.554688 L 428.035156 240.585938 L 428.738281 240.65625 L 429.09375 240.6875 L 429.445312 240.71875 L 429.796875 240.753906 L 430.148438 240.785156 L 430.5 240.8125 L 431.203125 240.875 L 431.554688 240.902344 L 431.90625 240.933594 L 433.664062 241.070312 L 434.015625 241.09375 L 434.367188 241.121094 L 434.71875 241.144531 L 435.074219 241.167969 L 435.425781 241.195312 L 436.128906 241.242188 L 436.480469 241.261719 L 437.183594 241.308594 L 437.535156 241.328125 L 437.886719 241.351562 L 438.238281 241.371094 L 438.589844 241.394531 L 438.941406 241.414062 "/>
</g>
<g fill="rgb(0%, 0%, 0%)" fill-opacity="1">
<use xlink:href="#glyph-2-0" x="187" y="29.629883"/>
<use xlink:href="#glyph-2-1" x="200" y="29.629883"/>
<use xlink:href="#glyph-2-2" x="207" y="29.629883"/>
<use xlink:href="#glyph-2-3" x="218" y="29.629883"/>
<use xlink:href="#glyph-2-4" x="235" y="29.629883"/>
<use xlink:href="#glyph-2-5" x="241" y="29.629883"/>
<use xlink:href="#glyph-2-6" x="249" y="29.629883"/>
<use xlink:href="#glyph-2-7" x="259" y="29.629883"/>
<use xlink:href="#glyph-2-8" x="271" y="29.629883"/>
<use xlink:href="#glyph-2-1" x="283" y="29.629883"/>
<use xlink:href="#glyph-2-9" x="290" y="29.629883"/>
<use xlink:href="#glyph-2-10" x="300" y="29.629883"/>
<use xlink:href="#glyph-2-11" x="307" y="29.629883"/>
<use xlink:href="#glyph-2-2" x="314" y="29.629883"/>
<use xlink:href="#glyph-2-12" x="326" y="29.629883"/>
</g>
<g fill="rgb(0%, 0%, 0%)" fill-opacity="1">
<use xlink:href="#glyph-3-0" x="240" y="312.493164"/>
<use xlink:href="#glyph-3-1" x="253" y="312.493164"/>
<use xlink:href="#glyph-3-2" x="264" y="312.493164"/>
<use xlink:href="#glyph-3-3" x="272" y="312.493164"/>
<use xlink:href="#glyph-3-4" x="280" y="312.493164"/>
</g>
<g fill="rgb(0%, 0%, 0%)" fill-opacity="1">
<use xlink:href="#glyph-4-0" x="15.133789" y="195.398438"/>
<use xlink:href="#glyph-4-1" x="15.133789" y="182.398438"/>
<use xlink:href="#glyph-4-2" x="15.133789" y="174.398438"/>
<use xlink:href="#glyph-4-3" x="15.133789" y="165.398438"/>
<use xlink:href="#glyph-4-4" x="15.133789" y="158.398438"/>
<use xlink:href="#glyph-4-5" x="15.133789" y="153.398438"/>
<use xlink:href="#glyph-4-6" x="15.133789" y="148.398438"/>
</g>
<path fill-rule="nonzero" fill="rgb(100%, 100%, 100%)" fill-opacity="1" stroke-width="0.75" stroke-linecap="round" stroke-linejoin="round" stroke="rgb(0%, 0%, 0%)" stroke-opacity="1" stroke-miterlimit="10" d="M 312.519531 79.054688 L 445.410156 79.054688 L 445.410156 101.757812 L 312.519531 101.757812 Z M 312.519531 79.054688 "/>
<path fill="none" stroke-width="1.5" stroke-linecap="round" stroke-linejoin="round" stroke="rgb(30.196078%, 30.196078%, 30.196078%)" stroke-opacity="1" stroke-miterlimit="10" d="M 316.195312 86.625 L 340.699219 86.625 "/>
<path fill-rule="nonzero" fill="rgb(88.235294%, 41.568627%, 52.54902%)" fill-opacity="1" stroke-width="0.75" stroke-linecap="round" stroke-linejoin="round" stroke="rgb(88.235294%, 41.568627%, 52.54902%)" stroke-opacity="1" stroke-miterlimit="10" d="M 323.664062 98.976562 L 333.234375 98.976562 L 333.234375 89.40625 L 323.664062 89.40625 Z M 323.664062 98.976562 "/>
<g fill="rgb(0%, 0%, 0%)" fill-opacity="1">
<use xlink:href="#glyph-5-0" x="352.953125" y="89.821289"/>
<use xlink:href="#glyph-5-1" x="360.953125" y="89.821289"/>
<use xlink:href="#glyph-5-2" x="366.953125" y="89.821289"/>
<use xlink:href="#glyph-5-3" x="371.953125" y="89.821289"/>
<use xlink:href="#glyph-5-4" x="377.953125" y="89.821289"/>
<use xlink:href="#glyph-5-2" x="381.953125" y="89.821289"/>
<use xlink:href="#glyph-5-5" x="386.953125" y="89.821289"/>
<use xlink:href="#glyph-5-6" x="389.953125" y="89.821289"/>
<use xlink:href="#glyph-5-7" x="392.953125" y="89.821289"/>
<use xlink:href="#glyph-5-8" x="397.953125" y="89.821289"/>
<use xlink:href="#glyph-5-9" x="402.953125" y="89.821289"/>
</g>
<g fill="rgb(0%, 0%, 0%)" fill-opacity="1">
<use xlink:href="#glyph-5-10" x="352.953125" y="97.387695"/>
<use xlink:href="#glyph-5-6" x="361.953125" y="97.387695"/>
<use xlink:href="#glyph-5-11" x="364.953125" y="97.387695"/>
<use xlink:href="#glyph-5-2" x="373.953125" y="97.387695"/>
<use xlink:href="#glyph-5-12" x="378.953125" y="97.387695"/>
<use xlink:href="#glyph-5-13" x="384.953125" y="97.387695"/>
<use xlink:href="#glyph-5-6" x="389.953125" y="97.387695"/>
<use xlink:href="#glyph-5-3" x="392.953125" y="97.387695"/>
<use xlink:href="#glyph-5-12" x="398.953125" y="97.387695"/>
<use xlink:href="#glyph-5-14" x="404.953125" y="97.387695"/>
<use xlink:href="#glyph-5-15" x="407.953125" y="97.387695"/>
</g>
</svg>
